<mxfile host="app.diagrams.net" modified="2023-11-14T01:09:37.829Z" agent="Mozilla/5.0 (Windows NT 10.0; Win64; x64) AppleWebKit/537.36 (KHTML, like Gecko) Chrome/119.0.0.0 Safari/537.36" etag="T0pXf34Ua79ABE135ThL" version="22.1.0" type="device" pages="4">
  <diagram id="C5RBs43oDa-KdzZeNtuy" name="BT1">
    <mxGraphModel dx="1290" dy="534" grid="1" gridSize="10" guides="1" tooltips="1" connect="1" arrows="1" fold="1" page="1" pageScale="1" pageWidth="827" pageHeight="1169" math="0" shadow="0">
      <root>
        <mxCell id="WIyWlLk6GJQsqaUBKTNV-0" />
        <mxCell id="WIyWlLk6GJQsqaUBKTNV-1" parent="WIyWlLk6GJQsqaUBKTNV-0" />
        <mxCell id="XSrnHSNJ-Vf6L9nMes1c-2" value="" style="edgeStyle=orthogonalEdgeStyle;rounded=0;orthogonalLoop=1;jettySize=auto;html=1;" parent="WIyWlLk6GJQsqaUBKTNV-1" source="XSrnHSNJ-Vf6L9nMes1c-0" target="XSrnHSNJ-Vf6L9nMes1c-1" edge="1">
          <mxGeometry relative="1" as="geometry" />
        </mxCell>
        <mxCell id="XSrnHSNJ-Vf6L9nMes1c-0" value="Start" style="ellipse;whiteSpace=wrap;html=1;" parent="WIyWlLk6GJQsqaUBKTNV-1" vertex="1">
          <mxGeometry x="160" y="40" width="120" height="80" as="geometry" />
        </mxCell>
        <mxCell id="XSrnHSNJ-Vf6L9nMes1c-4" value="" style="edgeStyle=orthogonalEdgeStyle;rounded=0;orthogonalLoop=1;jettySize=auto;html=1;" parent="WIyWlLk6GJQsqaUBKTNV-1" source="XSrnHSNJ-Vf6L9nMes1c-1" target="XSrnHSNJ-Vf6L9nMes1c-3" edge="1">
          <mxGeometry relative="1" as="geometry" />
        </mxCell>
        <mxCell id="XSrnHSNJ-Vf6L9nMes1c-1" value="n,i,answer" style="shape=parallelogram;perimeter=parallelogramPerimeter;whiteSpace=wrap;html=1;fixedSize=1;" parent="WIyWlLk6GJQsqaUBKTNV-1" vertex="1">
          <mxGeometry x="160" y="160" width="120" height="60" as="geometry" />
        </mxCell>
        <mxCell id="XSrnHSNJ-Vf6L9nMes1c-6" value="" style="edgeStyle=orthogonalEdgeStyle;rounded=0;orthogonalLoop=1;jettySize=auto;html=1;" parent="WIyWlLk6GJQsqaUBKTNV-1" source="XSrnHSNJ-Vf6L9nMes1c-3" target="XSrnHSNJ-Vf6L9nMes1c-5" edge="1">
          <mxGeometry relative="1" as="geometry" />
        </mxCell>
        <mxCell id="XSrnHSNJ-Vf6L9nMes1c-16" value="true" style="edgeLabel;html=1;align=center;verticalAlign=middle;resizable=0;points=[];" parent="XSrnHSNJ-Vf6L9nMes1c-6" vertex="1" connectable="0">
          <mxGeometry x="0.0686" y="1" relative="1" as="geometry">
            <mxPoint as="offset" />
          </mxGeometry>
        </mxCell>
        <mxCell id="XSrnHSNJ-Vf6L9nMes1c-14" style="edgeStyle=orthogonalEdgeStyle;rounded=0;orthogonalLoop=1;jettySize=auto;html=1;exitX=1;exitY=0.5;exitDx=0;exitDy=0;entryX=0.5;entryY=0;entryDx=0;entryDy=0;" parent="WIyWlLk6GJQsqaUBKTNV-1" source="XSrnHSNJ-Vf6L9nMes1c-3" target="XSrnHSNJ-Vf6L9nMes1c-17" edge="1">
          <mxGeometry relative="1" as="geometry">
            <mxPoint x="400" y="560" as="targetPoint" />
          </mxGeometry>
        </mxCell>
        <mxCell id="XSrnHSNJ-Vf6L9nMes1c-15" value="false" style="edgeLabel;html=1;align=center;verticalAlign=middle;resizable=0;points=[];" parent="XSrnHSNJ-Vf6L9nMes1c-14" vertex="1" connectable="0">
          <mxGeometry x="-0.2597" relative="1" as="geometry">
            <mxPoint as="offset" />
          </mxGeometry>
        </mxCell>
        <mxCell id="XSrnHSNJ-Vf6L9nMes1c-3" value="i&amp;lt;=10" style="rhombus;whiteSpace=wrap;html=1;" parent="WIyWlLk6GJQsqaUBKTNV-1" vertex="1">
          <mxGeometry x="180" y="280" width="80" height="80" as="geometry" />
        </mxCell>
        <mxCell id="XSrnHSNJ-Vf6L9nMes1c-8" value="" style="edgeStyle=orthogonalEdgeStyle;rounded=0;orthogonalLoop=1;jettySize=auto;html=1;" parent="WIyWlLk6GJQsqaUBKTNV-1" source="XSrnHSNJ-Vf6L9nMes1c-5" target="XSrnHSNJ-Vf6L9nMes1c-7" edge="1">
          <mxGeometry relative="1" as="geometry" />
        </mxCell>
        <mxCell id="XSrnHSNJ-Vf6L9nMes1c-5" value="answer=i*n" style="whiteSpace=wrap;html=1;" parent="WIyWlLk6GJQsqaUBKTNV-1" vertex="1">
          <mxGeometry x="160" y="430" width="120" height="60" as="geometry" />
        </mxCell>
        <mxCell id="XSrnHSNJ-Vf6L9nMes1c-10" value="" style="edgeStyle=orthogonalEdgeStyle;rounded=0;orthogonalLoop=1;jettySize=auto;html=1;" parent="WIyWlLk6GJQsqaUBKTNV-1" source="XSrnHSNJ-Vf6L9nMes1c-7" target="XSrnHSNJ-Vf6L9nMes1c-9" edge="1">
          <mxGeometry relative="1" as="geometry" />
        </mxCell>
        <mxCell id="XSrnHSNJ-Vf6L9nMes1c-7" value="i*n=answer" style="shape=parallelogram;perimeter=parallelogramPerimeter;whiteSpace=wrap;html=1;fixedSize=1;" parent="WIyWlLk6GJQsqaUBKTNV-1" vertex="1">
          <mxGeometry x="160" y="555" width="120" height="60" as="geometry" />
        </mxCell>
        <mxCell id="XSrnHSNJ-Vf6L9nMes1c-13" style="edgeStyle=orthogonalEdgeStyle;rounded=0;orthogonalLoop=1;jettySize=auto;html=1;exitX=0;exitY=0.5;exitDx=0;exitDy=0;" parent="WIyWlLk6GJQsqaUBKTNV-1" source="XSrnHSNJ-Vf6L9nMes1c-9" edge="1">
          <mxGeometry relative="1" as="geometry">
            <mxPoint x="220" y="250" as="targetPoint" />
            <mxPoint x="140" y="720" as="sourcePoint" />
            <Array as="points">
              <mxPoint x="80" y="720" />
              <mxPoint x="80" y="250" />
            </Array>
          </mxGeometry>
        </mxCell>
        <mxCell id="XSrnHSNJ-Vf6L9nMes1c-9" value="i++" style="whiteSpace=wrap;html=1;" parent="WIyWlLk6GJQsqaUBKTNV-1" vertex="1">
          <mxGeometry x="160" y="690" width="120" height="60" as="geometry" />
        </mxCell>
        <mxCell id="XSrnHSNJ-Vf6L9nMes1c-17" value="End" style="ellipse;whiteSpace=wrap;html=1;" parent="WIyWlLk6GJQsqaUBKTNV-1" vertex="1">
          <mxGeometry x="340" y="580" width="120" height="80" as="geometry" />
        </mxCell>
      </root>
    </mxGraphModel>
  </diagram>
  <diagram id="rgKdmtgQq7grxYSQtNwK" name="BT2">
    <mxGraphModel dx="1290" dy="534" grid="1" gridSize="10" guides="1" tooltips="1" connect="1" arrows="1" fold="1" page="1" pageScale="1" pageWidth="827" pageHeight="1169" math="0" shadow="0">
      <root>
        <mxCell id="0" />
        <mxCell id="1" parent="0" />
        <mxCell id="EOKKzA77r5gDIUm1Ne0f-4" value="" style="edgeStyle=orthogonalEdgeStyle;rounded=0;orthogonalLoop=1;jettySize=auto;html=1;" edge="1" parent="1" source="EOKKzA77r5gDIUm1Ne0f-1" target="EOKKzA77r5gDIUm1Ne0f-3">
          <mxGeometry relative="1" as="geometry" />
        </mxCell>
        <mxCell id="EOKKzA77r5gDIUm1Ne0f-1" value="Start" style="ellipse;whiteSpace=wrap;html=1;" vertex="1" parent="1">
          <mxGeometry x="240" y="40" width="120" height="80" as="geometry" />
        </mxCell>
        <mxCell id="EOKKzA77r5gDIUm1Ne0f-7" value="" style="edgeStyle=orthogonalEdgeStyle;rounded=0;orthogonalLoop=1;jettySize=auto;html=1;" edge="1" parent="1" source="EOKKzA77r5gDIUm1Ne0f-3" target="EOKKzA77r5gDIUm1Ne0f-6">
          <mxGeometry relative="1" as="geometry" />
        </mxCell>
        <mxCell id="EOKKzA77r5gDIUm1Ne0f-3" value="n1,n2,calculator,choice,gcd,lcm,i" style="shape=parallelogram;perimeter=parallelogramPerimeter;whiteSpace=wrap;html=1;fixedSize=1;" vertex="1" parent="1">
          <mxGeometry x="60" y="160" width="480" height="60" as="geometry" />
        </mxCell>
        <mxCell id="EOKKzA77r5gDIUm1Ne0f-9" value="" style="edgeStyle=orthogonalEdgeStyle;rounded=0;orthogonalLoop=1;jettySize=auto;html=1;" edge="1" parent="1" source="EOKKzA77r5gDIUm1Ne0f-6" target="EOKKzA77r5gDIUm1Ne0f-8">
          <mxGeometry relative="1" as="geometry" />
        </mxCell>
        <mxCell id="EOKKzA77r5gDIUm1Ne0f-6" value="&lt;br&gt;&lt;table style=&quot;box-sizing: border-box; border-collapse: collapse; font-family: &amp;quot;Roboto Flex&amp;quot;; font-size: 16px; scroll-behavior: smooth; overflow: auto; border-spacing: 0px; margin-bottom: 1em; margin-top: 1em; color: rgb(34, 34, 34); font-style: normal; font-variant-ligatures: normal; font-variant-caps: normal; font-weight: 400; letter-spacing: normal; orphans: 2; text-align: left; text-transform: none; widows: 2; word-spacing: 0px; -webkit-text-stroke-width: 0px; background-color: rgb(255, 255, 255); text-decoration-thickness: initial; text-decoration-style: initial; text-decoration-color: initial;&quot;&gt;&lt;thead style=&quot;box-sizing: border-box; font-family: &amp;quot;Roboto Flex&amp;quot;; font-size: 16px; scroll-behavior: smooth;&quot;&gt;&lt;tr style=&quot;box-sizing: border-box; font-family: &amp;quot;Roboto Flex&amp;quot;; font-size: 16px; scroll-behavior: smooth;&quot;&gt;&lt;th style=&quot;box-sizing: border-box; text-align: -webkit-match-parent; font-family: &amp;quot;Roboto Flex&amp;quot;; font-size: 16px; scroll-behavior: smooth; overflow-wrap: break-word; padding: 8px 14px; border: 1px solid var(--md-theme-border-color);&quot;&gt;CACULATOR&lt;/th&gt;&lt;/tr&gt;&lt;/thead&gt;&lt;tbody style=&quot;box-sizing: border-box; font-family: &amp;quot;Roboto Flex&amp;quot;; font-size: 16px; scroll-behavior: smooth;&quot;&gt;&lt;tr style=&quot;box-sizing: border-box; font-family: &amp;quot;Roboto Flex&amp;quot;; font-size: 16px; scroll-behavior: smooth;&quot;&gt;&lt;td style=&quot;box-sizing: border-box; font-family: &amp;quot;Roboto Flex&amp;quot;; font-size: 16px; scroll-behavior: smooth; overflow-wrap: break-word; padding: 8px 14px; border: 1px solid var(--md-theme-border-color);&quot;&gt;1. Tong 2 so&lt;/td&gt;&lt;/tr&gt;&lt;tr style=&quot;box-sizing: border-box; font-family: &amp;quot;Roboto Flex&amp;quot;; font-size: 16px; scroll-behavior: smooth; background-color: var(--default-theme-table-stripe-color);&quot;&gt;&lt;td style=&quot;box-sizing: border-box; font-family: &amp;quot;Roboto Flex&amp;quot;; font-size: 16px; scroll-behavior: smooth; overflow-wrap: break-word; padding: 8px 14px; border: 1px solid var(--md-theme-border-color);&quot;&gt;2. Hieu 2 so&lt;/td&gt;&lt;/tr&gt;&lt;tr style=&quot;box-sizing: border-box; font-family: &amp;quot;Roboto Flex&amp;quot;; font-size: 16px; scroll-behavior: smooth;&quot;&gt;&lt;td style=&quot;box-sizing: border-box; font-family: &amp;quot;Roboto Flex&amp;quot;; font-size: 16px; scroll-behavior: smooth; overflow-wrap: break-word; padding: 8px 14px; border: 1px solid var(--md-theme-border-color);&quot;&gt;3. Tich 2 so&lt;/td&gt;&lt;/tr&gt;&lt;tr style=&quot;box-sizing: border-box; font-family: &amp;quot;Roboto Flex&amp;quot;; font-size: 16px; scroll-behavior: smooth; background-color: var(--default-theme-table-stripe-color);&quot;&gt;&lt;td style=&quot;box-sizing: border-box; font-family: &amp;quot;Roboto Flex&amp;quot;; font-size: 16px; scroll-behavior: smooth; overflow-wrap: break-word; padding: 8px 14px; border: 1px solid var(--md-theme-border-color);&quot;&gt;4. Thuong 2 so&lt;/td&gt;&lt;/tr&gt;&lt;tr style=&quot;box-sizing: border-box; font-family: &amp;quot;Roboto Flex&amp;quot;; font-size: 16px; scroll-behavior: smooth;&quot;&gt;&lt;td style=&quot;box-sizing: border-box; font-family: &amp;quot;Roboto Flex&amp;quot;; font-size: 16px; scroll-behavior: smooth; overflow-wrap: break-word; padding: 8px 14px; border: 1px solid var(--md-theme-border-color);&quot;&gt;5. So du trong phep chia 2 so&lt;/td&gt;&lt;/tr&gt;&lt;tr style=&quot;box-sizing: border-box; font-family: &amp;quot;Roboto Flex&amp;quot;; font-size: 16px; scroll-behavior: smooth; background-color: var(--default-theme-table-stripe-color);&quot;&gt;&lt;td style=&quot;box-sizing: border-box; font-family: &amp;quot;Roboto Flex&amp;quot;; font-size: 16px; scroll-behavior: smooth; overflow-wrap: break-word; padding: 8px 14px; border: 1px solid var(--md-theme-border-color);&quot;&gt;6. Uoc chung lon nhat&lt;/td&gt;&lt;/tr&gt;&lt;tr style=&quot;box-sizing: border-box; font-family: &amp;quot;Roboto Flex&amp;quot;; font-size: 16px; scroll-behavior: smooth; background-color: var(--md-theme-color-hover);&quot;&gt;&lt;td style=&quot;box-sizing: border-box; font-family: &amp;quot;Roboto Flex&amp;quot;; font-size: 16px; scroll-behavior: smooth; overflow-wrap: break-word; padding: 8px 14px; border: 1px solid var(--md-theme-border-color);&quot;&gt;7. Boi chung nho nhat&lt;/td&gt;&lt;/tr&gt;&lt;tr style=&quot;box-sizing: border-box; font-family: &amp;quot;Roboto Flex&amp;quot;; font-size: 16px; scroll-behavior: smooth; background-color: var(--default-theme-table-stripe-color);&quot;&gt;&lt;td style=&quot;box-sizing: border-box; font-family: &amp;quot;Roboto Flex&amp;quot;; font-size: 16px; scroll-behavior: smooth; overflow-wrap: break-word; padding: 8px 14px; border: 1px solid var(--md-theme-border-color);&quot;&gt;8. Thoat&lt;/td&gt;&lt;/tr&gt;&lt;/tbody&gt;&lt;/table&gt;&lt;br&gt;" style="shape=parallelogram;perimeter=parallelogramPerimeter;whiteSpace=wrap;html=1;fixedSize=1;" vertex="1" parent="1">
          <mxGeometry x="50" y="280" width="500" height="350" as="geometry" />
        </mxCell>
        <mxCell id="EOKKzA77r5gDIUm1Ne0f-11" value="" style="edgeStyle=orthogonalEdgeStyle;rounded=0;orthogonalLoop=1;jettySize=auto;html=1;" edge="1" parent="1" source="EOKKzA77r5gDIUm1Ne0f-8" target="EOKKzA77r5gDIUm1Ne0f-10">
          <mxGeometry relative="1" as="geometry" />
        </mxCell>
        <mxCell id="EOKKzA77r5gDIUm1Ne0f-24" value="false" style="edgeLabel;html=1;align=center;verticalAlign=middle;resizable=0;points=[];" vertex="1" connectable="0" parent="EOKKzA77r5gDIUm1Ne0f-11">
          <mxGeometry x="-0.055" y="-1" relative="1" as="geometry">
            <mxPoint as="offset" />
          </mxGeometry>
        </mxCell>
        <mxCell id="EOKKzA77r5gDIUm1Ne0f-35" value="" style="edgeStyle=orthogonalEdgeStyle;rounded=0;orthogonalLoop=1;jettySize=auto;html=1;" edge="1" parent="1" source="EOKKzA77r5gDIUm1Ne0f-8" target="EOKKzA77r5gDIUm1Ne0f-34">
          <mxGeometry relative="1" as="geometry" />
        </mxCell>
        <mxCell id="EOKKzA77r5gDIUm1Ne0f-36" value="true" style="edgeLabel;html=1;align=center;verticalAlign=middle;resizable=0;points=[];" vertex="1" connectable="0" parent="EOKKzA77r5gDIUm1Ne0f-35">
          <mxGeometry x="-0.288" y="-1" relative="1" as="geometry">
            <mxPoint as="offset" />
          </mxGeometry>
        </mxCell>
        <mxCell id="EOKKzA77r5gDIUm1Ne0f-8" value="choice=1" style="rhombus;whiteSpace=wrap;html=1;" vertex="1" parent="1">
          <mxGeometry x="260" y="700" width="80" height="80" as="geometry" />
        </mxCell>
        <mxCell id="EOKKzA77r5gDIUm1Ne0f-13" value="" style="edgeStyle=orthogonalEdgeStyle;rounded=0;orthogonalLoop=1;jettySize=auto;html=1;" edge="1" parent="1" source="EOKKzA77r5gDIUm1Ne0f-10" target="EOKKzA77r5gDIUm1Ne0f-12">
          <mxGeometry relative="1" as="geometry" />
        </mxCell>
        <mxCell id="EOKKzA77r5gDIUm1Ne0f-25" value="false" style="edgeLabel;html=1;align=center;verticalAlign=middle;resizable=0;points=[];" vertex="1" connectable="0" parent="EOKKzA77r5gDIUm1Ne0f-13">
          <mxGeometry x="-0.18" y="-2" relative="1" as="geometry">
            <mxPoint as="offset" />
          </mxGeometry>
        </mxCell>
        <mxCell id="EOKKzA77r5gDIUm1Ne0f-41" value="" style="edgeStyle=orthogonalEdgeStyle;rounded=0;orthogonalLoop=1;jettySize=auto;html=1;" edge="1" parent="1" source="EOKKzA77r5gDIUm1Ne0f-10" target="EOKKzA77r5gDIUm1Ne0f-40">
          <mxGeometry relative="1" as="geometry" />
        </mxCell>
        <mxCell id="EOKKzA77r5gDIUm1Ne0f-42" value="true" style="edgeLabel;html=1;align=center;verticalAlign=middle;resizable=0;points=[];" vertex="1" connectable="0" parent="EOKKzA77r5gDIUm1Ne0f-41">
          <mxGeometry x="-0.34" y="4" relative="1" as="geometry">
            <mxPoint as="offset" />
          </mxGeometry>
        </mxCell>
        <mxCell id="EOKKzA77r5gDIUm1Ne0f-10" value="choice=2" style="rhombus;whiteSpace=wrap;html=1;" vertex="1" parent="1">
          <mxGeometry x="260" y="860" width="80" height="80" as="geometry" />
        </mxCell>
        <mxCell id="EOKKzA77r5gDIUm1Ne0f-15" value="" style="edgeStyle=orthogonalEdgeStyle;rounded=0;orthogonalLoop=1;jettySize=auto;html=1;" edge="1" parent="1" source="EOKKzA77r5gDIUm1Ne0f-12" target="EOKKzA77r5gDIUm1Ne0f-14">
          <mxGeometry relative="1" as="geometry" />
        </mxCell>
        <mxCell id="EOKKzA77r5gDIUm1Ne0f-26" value="false" style="edgeLabel;html=1;align=center;verticalAlign=middle;resizable=0;points=[];" vertex="1" connectable="0" parent="EOKKzA77r5gDIUm1Ne0f-15">
          <mxGeometry x="-0.13" y="-1" relative="1" as="geometry">
            <mxPoint as="offset" />
          </mxGeometry>
        </mxCell>
        <mxCell id="EOKKzA77r5gDIUm1Ne0f-45" value="" style="edgeStyle=orthogonalEdgeStyle;rounded=0;orthogonalLoop=1;jettySize=auto;html=1;" edge="1" parent="1" source="EOKKzA77r5gDIUm1Ne0f-12" target="EOKKzA77r5gDIUm1Ne0f-44">
          <mxGeometry relative="1" as="geometry" />
        </mxCell>
        <mxCell id="EOKKzA77r5gDIUm1Ne0f-46" value="true" style="edgeLabel;html=1;align=center;verticalAlign=middle;resizable=0;points=[];" vertex="1" connectable="0" parent="EOKKzA77r5gDIUm1Ne0f-45">
          <mxGeometry x="-0.4067" y="1" relative="1" as="geometry">
            <mxPoint as="offset" />
          </mxGeometry>
        </mxCell>
        <mxCell id="EOKKzA77r5gDIUm1Ne0f-12" value="choice=3" style="rhombus;whiteSpace=wrap;html=1;" vertex="1" parent="1">
          <mxGeometry x="260" y="1020" width="80" height="80" as="geometry" />
        </mxCell>
        <mxCell id="EOKKzA77r5gDIUm1Ne0f-17" value="" style="edgeStyle=orthogonalEdgeStyle;rounded=0;orthogonalLoop=1;jettySize=auto;html=1;" edge="1" parent="1" source="EOKKzA77r5gDIUm1Ne0f-14" target="EOKKzA77r5gDIUm1Ne0f-16">
          <mxGeometry relative="1" as="geometry" />
        </mxCell>
        <mxCell id="EOKKzA77r5gDIUm1Ne0f-27" value="false" style="edgeLabel;html=1;align=center;verticalAlign=middle;resizable=0;points=[];" vertex="1" connectable="0" parent="EOKKzA77r5gDIUm1Ne0f-17">
          <mxGeometry x="-0.13" y="-1" relative="1" as="geometry">
            <mxPoint as="offset" />
          </mxGeometry>
        </mxCell>
        <mxCell id="EOKKzA77r5gDIUm1Ne0f-49" value="" style="edgeStyle=orthogonalEdgeStyle;rounded=0;orthogonalLoop=1;jettySize=auto;html=1;" edge="1" parent="1" source="EOKKzA77r5gDIUm1Ne0f-14" target="EOKKzA77r5gDIUm1Ne0f-48">
          <mxGeometry relative="1" as="geometry" />
        </mxCell>
        <mxCell id="EOKKzA77r5gDIUm1Ne0f-50" value="true" style="edgeLabel;html=1;align=center;verticalAlign=middle;resizable=0;points=[];" vertex="1" connectable="0" parent="EOKKzA77r5gDIUm1Ne0f-49">
          <mxGeometry x="-0.328" y="3" relative="1" as="geometry">
            <mxPoint as="offset" />
          </mxGeometry>
        </mxCell>
        <mxCell id="EOKKzA77r5gDIUm1Ne0f-14" value="choice=4" style="rhombus;whiteSpace=wrap;html=1;" vertex="1" parent="1">
          <mxGeometry x="260" y="1180" width="80" height="80" as="geometry" />
        </mxCell>
        <mxCell id="EOKKzA77r5gDIUm1Ne0f-19" value="" style="edgeStyle=orthogonalEdgeStyle;rounded=0;orthogonalLoop=1;jettySize=auto;html=1;" edge="1" parent="1" source="EOKKzA77r5gDIUm1Ne0f-16" target="EOKKzA77r5gDIUm1Ne0f-18">
          <mxGeometry relative="1" as="geometry" />
        </mxCell>
        <mxCell id="EOKKzA77r5gDIUm1Ne0f-28" value="false" style="edgeLabel;html=1;align=center;verticalAlign=middle;resizable=0;points=[];" vertex="1" connectable="0" parent="EOKKzA77r5gDIUm1Ne0f-19">
          <mxGeometry x="-0.03" y="-1" relative="1" as="geometry">
            <mxPoint as="offset" />
          </mxGeometry>
        </mxCell>
        <mxCell id="EOKKzA77r5gDIUm1Ne0f-53" value="" style="edgeStyle=orthogonalEdgeStyle;rounded=0;orthogonalLoop=1;jettySize=auto;html=1;" edge="1" parent="1" source="EOKKzA77r5gDIUm1Ne0f-16" target="EOKKzA77r5gDIUm1Ne0f-52">
          <mxGeometry relative="1" as="geometry" />
        </mxCell>
        <mxCell id="EOKKzA77r5gDIUm1Ne0f-54" value="true" style="edgeLabel;html=1;align=center;verticalAlign=middle;resizable=0;points=[];" vertex="1" connectable="0" parent="EOKKzA77r5gDIUm1Ne0f-53">
          <mxGeometry x="-0.368" y="1" relative="1" as="geometry">
            <mxPoint as="offset" />
          </mxGeometry>
        </mxCell>
        <mxCell id="EOKKzA77r5gDIUm1Ne0f-16" value="choice=5" style="rhombus;whiteSpace=wrap;html=1;" vertex="1" parent="1">
          <mxGeometry x="260" y="1340" width="80" height="80" as="geometry" />
        </mxCell>
        <mxCell id="EOKKzA77r5gDIUm1Ne0f-21" value="" style="edgeStyle=orthogonalEdgeStyle;rounded=0;orthogonalLoop=1;jettySize=auto;html=1;" edge="1" parent="1" source="EOKKzA77r5gDIUm1Ne0f-18" target="EOKKzA77r5gDIUm1Ne0f-20">
          <mxGeometry relative="1" as="geometry" />
        </mxCell>
        <mxCell id="EOKKzA77r5gDIUm1Ne0f-29" value="false" style="edgeLabel;html=1;align=center;verticalAlign=middle;resizable=0;points=[];" vertex="1" connectable="0" parent="EOKKzA77r5gDIUm1Ne0f-21">
          <mxGeometry x="-0.055" y="-3" relative="1" as="geometry">
            <mxPoint as="offset" />
          </mxGeometry>
        </mxCell>
        <mxCell id="EOKKzA77r5gDIUm1Ne0f-58" value="" style="edgeStyle=orthogonalEdgeStyle;rounded=0;orthogonalLoop=1;jettySize=auto;html=1;" edge="1" parent="1" source="EOKKzA77r5gDIUm1Ne0f-18" target="EOKKzA77r5gDIUm1Ne0f-57">
          <mxGeometry relative="1" as="geometry" />
        </mxCell>
        <mxCell id="EOKKzA77r5gDIUm1Ne0f-59" value="true" style="edgeLabel;html=1;align=center;verticalAlign=middle;resizable=0;points=[];" vertex="1" connectable="0" parent="EOKKzA77r5gDIUm1Ne0f-58">
          <mxGeometry x="-0.34" y="1" relative="1" as="geometry">
            <mxPoint as="offset" />
          </mxGeometry>
        </mxCell>
        <mxCell id="EOKKzA77r5gDIUm1Ne0f-18" value="choice=6" style="rhombus;whiteSpace=wrap;html=1;" vertex="1" parent="1">
          <mxGeometry x="260" y="1500" width="80" height="80" as="geometry" />
        </mxCell>
        <mxCell id="EOKKzA77r5gDIUm1Ne0f-23" value="" style="edgeStyle=orthogonalEdgeStyle;rounded=0;orthogonalLoop=1;jettySize=auto;html=1;exitX=0.5;exitY=1;exitDx=0;exitDy=0;" edge="1" parent="1" source="EOKKzA77r5gDIUm1Ne0f-20" target="EOKKzA77r5gDIUm1Ne0f-22">
          <mxGeometry relative="1" as="geometry">
            <mxPoint x="310" y="2630" as="sourcePoint" />
          </mxGeometry>
        </mxCell>
        <mxCell id="EOKKzA77r5gDIUm1Ne0f-30" value="false" style="edgeLabel;html=1;align=center;verticalAlign=middle;resizable=0;points=[];" vertex="1" connectable="0" parent="EOKKzA77r5gDIUm1Ne0f-23">
          <mxGeometry x="-0.08" y="-2" relative="1" as="geometry">
            <mxPoint as="offset" />
          </mxGeometry>
        </mxCell>
        <mxCell id="EOKKzA77r5gDIUm1Ne0f-20" value="choice=7" style="rhombus;whiteSpace=wrap;html=1;" vertex="1" parent="1">
          <mxGeometry x="260" y="2130" width="80" height="80" as="geometry" />
        </mxCell>
        <mxCell id="EOKKzA77r5gDIUm1Ne0f-32" value="" style="edgeStyle=orthogonalEdgeStyle;rounded=0;orthogonalLoop=1;jettySize=auto;html=1;" edge="1" parent="1" source="EOKKzA77r5gDIUm1Ne0f-22" target="EOKKzA77r5gDIUm1Ne0f-31">
          <mxGeometry relative="1" as="geometry" />
        </mxCell>
        <mxCell id="EOKKzA77r5gDIUm1Ne0f-56" value="false" style="edgeLabel;html=1;align=center;verticalAlign=middle;resizable=0;points=[];" vertex="1" connectable="0" parent="EOKKzA77r5gDIUm1Ne0f-32">
          <mxGeometry x="-0.1556" y="1" relative="1" as="geometry">
            <mxPoint as="offset" />
          </mxGeometry>
        </mxCell>
        <mxCell id="SrSOov9xF5B4vpwAjV_N-47" value="" style="edgeStyle=orthogonalEdgeStyle;rounded=0;orthogonalLoop=1;jettySize=auto;html=1;" edge="1" parent="1" source="EOKKzA77r5gDIUm1Ne0f-22" target="SrSOov9xF5B4vpwAjV_N-46">
          <mxGeometry relative="1" as="geometry" />
        </mxCell>
        <mxCell id="EOKKzA77r5gDIUm1Ne0f-22" value="choice=8" style="rhombus;whiteSpace=wrap;html=1;" vertex="1" parent="1">
          <mxGeometry x="260" y="2710" width="80" height="80" as="geometry" />
        </mxCell>
        <mxCell id="EOKKzA77r5gDIUm1Ne0f-33" style="edgeStyle=orthogonalEdgeStyle;rounded=0;orthogonalLoop=1;jettySize=auto;html=1;exitX=0;exitY=0.5;exitDx=0;exitDy=0;" edge="1" parent="1" source="EOKKzA77r5gDIUm1Ne0f-31">
          <mxGeometry relative="1" as="geometry">
            <mxPoint x="300" y="250" as="targetPoint" />
            <mxPoint x="190" y="2000" as="sourcePoint" />
            <Array as="points">
              <mxPoint x="31" y="2910" />
              <mxPoint x="31" y="250" />
              <mxPoint x="300" y="250" />
            </Array>
          </mxGeometry>
        </mxCell>
        <mxCell id="EOKKzA77r5gDIUm1Ne0f-31" value="vui long chon lai so tu 1-8" style="shape=parallelogram;perimeter=parallelogramPerimeter;whiteSpace=wrap;html=1;fixedSize=1;" vertex="1" parent="1">
          <mxGeometry x="180" y="2880" width="240" height="60" as="geometry" />
        </mxCell>
        <mxCell id="EOKKzA77r5gDIUm1Ne0f-38" value="" style="edgeStyle=orthogonalEdgeStyle;rounded=0;orthogonalLoop=1;jettySize=auto;html=1;" edge="1" parent="1" source="EOKKzA77r5gDIUm1Ne0f-34" target="EOKKzA77r5gDIUm1Ne0f-37">
          <mxGeometry relative="1" as="geometry" />
        </mxCell>
        <mxCell id="EOKKzA77r5gDIUm1Ne0f-34" value="calculator=n1+n2" style="whiteSpace=wrap;html=1;" vertex="1" parent="1">
          <mxGeometry x="390" y="710" width="120" height="60" as="geometry" />
        </mxCell>
        <mxCell id="EOKKzA77r5gDIUm1Ne0f-39" style="edgeStyle=orthogonalEdgeStyle;rounded=0;orthogonalLoop=1;jettySize=auto;html=1;" edge="1" parent="1" source="EOKKzA77r5gDIUm1Ne0f-37">
          <mxGeometry relative="1" as="geometry">
            <mxPoint x="300" y="250" as="targetPoint" />
            <Array as="points">
              <mxPoint x="620" y="250" />
              <mxPoint x="300" y="250" />
            </Array>
          </mxGeometry>
        </mxCell>
        <mxCell id="EOKKzA77r5gDIUm1Ne0f-37" value="calculator" style="shape=parallelogram;perimeter=parallelogramPerimeter;whiteSpace=wrap;html=1;fixedSize=1;" vertex="1" parent="1">
          <mxGeometry x="560" y="710" width="120" height="60" as="geometry" />
        </mxCell>
        <mxCell id="EOKKzA77r5gDIUm1Ne0f-43" style="edgeStyle=orthogonalEdgeStyle;rounded=0;orthogonalLoop=1;jettySize=auto;html=1;exitX=1;exitY=0.5;exitDx=0;exitDy=0;entryX=0.5;entryY=1;entryDx=0;entryDy=0;" edge="1" parent="1" source="EOKKzA77r5gDIUm1Ne0f-40" target="EOKKzA77r5gDIUm1Ne0f-37">
          <mxGeometry relative="1" as="geometry" />
        </mxCell>
        <mxCell id="EOKKzA77r5gDIUm1Ne0f-40" value="calculator=n1-n2" style="whiteSpace=wrap;html=1;" vertex="1" parent="1">
          <mxGeometry x="390" y="870" width="120" height="60" as="geometry" />
        </mxCell>
        <mxCell id="EOKKzA77r5gDIUm1Ne0f-47" style="edgeStyle=orthogonalEdgeStyle;rounded=0;orthogonalLoop=1;jettySize=auto;html=1;exitX=1;exitY=0.5;exitDx=0;exitDy=0;entryX=0.5;entryY=1;entryDx=0;entryDy=0;" edge="1" parent="1" source="EOKKzA77r5gDIUm1Ne0f-44" target="EOKKzA77r5gDIUm1Ne0f-37">
          <mxGeometry relative="1" as="geometry" />
        </mxCell>
        <mxCell id="EOKKzA77r5gDIUm1Ne0f-44" value="calculator=n1*n2" style="whiteSpace=wrap;html=1;" vertex="1" parent="1">
          <mxGeometry x="390" y="1030" width="120" height="60" as="geometry" />
        </mxCell>
        <mxCell id="EOKKzA77r5gDIUm1Ne0f-51" style="edgeStyle=orthogonalEdgeStyle;rounded=0;orthogonalLoop=1;jettySize=auto;html=1;entryX=0.5;entryY=1;entryDx=0;entryDy=0;" edge="1" parent="1" source="EOKKzA77r5gDIUm1Ne0f-48" target="EOKKzA77r5gDIUm1Ne0f-37">
          <mxGeometry relative="1" as="geometry" />
        </mxCell>
        <mxCell id="EOKKzA77r5gDIUm1Ne0f-48" value="calculator=n1/n2" style="whiteSpace=wrap;html=1;" vertex="1" parent="1">
          <mxGeometry x="390" y="1190" width="120" height="60" as="geometry" />
        </mxCell>
        <mxCell id="EOKKzA77r5gDIUm1Ne0f-55" style="edgeStyle=orthogonalEdgeStyle;rounded=0;orthogonalLoop=1;jettySize=auto;html=1;entryX=0.5;entryY=1;entryDx=0;entryDy=0;" edge="1" parent="1" source="EOKKzA77r5gDIUm1Ne0f-52" target="EOKKzA77r5gDIUm1Ne0f-37">
          <mxGeometry relative="1" as="geometry" />
        </mxCell>
        <mxCell id="EOKKzA77r5gDIUm1Ne0f-52" value="calculator=n1%n2" style="whiteSpace=wrap;html=1;" vertex="1" parent="1">
          <mxGeometry x="390" y="1350" width="120" height="60" as="geometry" />
        </mxCell>
        <mxCell id="zg2HpXga6KxHroLCPBap-2" value="" style="edgeStyle=orthogonalEdgeStyle;rounded=0;orthogonalLoop=1;jettySize=auto;html=1;" edge="1" parent="1" source="EOKKzA77r5gDIUm1Ne0f-57" target="zg2HpXga6KxHroLCPBap-1">
          <mxGeometry relative="1" as="geometry" />
        </mxCell>
        <mxCell id="EOKKzA77r5gDIUm1Ne0f-57" value="i=1" style="whiteSpace=wrap;html=1;" vertex="1" parent="1">
          <mxGeometry x="390" y="1510" width="120" height="60" as="geometry" />
        </mxCell>
        <mxCell id="arZdkGKesdoXvIaW-erw-2" value="" style="edgeStyle=orthogonalEdgeStyle;rounded=0;orthogonalLoop=1;jettySize=auto;html=1;" edge="1" parent="1" source="zg2HpXga6KxHroLCPBap-1" target="arZdkGKesdoXvIaW-erw-1">
          <mxGeometry relative="1" as="geometry" />
        </mxCell>
        <mxCell id="arZdkGKesdoXvIaW-erw-3" value="true" style="edgeLabel;html=1;align=center;verticalAlign=middle;resizable=0;points=[];" vertex="1" connectable="0" parent="arZdkGKesdoXvIaW-erw-2">
          <mxGeometry x="-0.14" relative="1" as="geometry">
            <mxPoint as="offset" />
          </mxGeometry>
        </mxCell>
        <mxCell id="zg2HpXga6KxHroLCPBap-1" value="i&amp;lt;=n1||i&amp;lt;=n2" style="rhombus;whiteSpace=wrap;html=1;" vertex="1" parent="1">
          <mxGeometry x="560" y="1500" width="80" height="80" as="geometry" />
        </mxCell>
        <mxCell id="arZdkGKesdoXvIaW-erw-5" value="" style="edgeStyle=orthogonalEdgeStyle;rounded=0;orthogonalLoop=1;jettySize=auto;html=1;" edge="1" parent="1" source="arZdkGKesdoXvIaW-erw-1" target="arZdkGKesdoXvIaW-erw-4">
          <mxGeometry relative="1" as="geometry" />
        </mxCell>
        <mxCell id="arZdkGKesdoXvIaW-erw-1" value="n%i==0&amp;amp;&amp;amp;m%i==0" style="rhombus;whiteSpace=wrap;html=1;" vertex="1" parent="1">
          <mxGeometry x="530" y="1660" width="140" height="80" as="geometry" />
        </mxCell>
        <mxCell id="arZdkGKesdoXvIaW-erw-11" style="edgeStyle=orthogonalEdgeStyle;rounded=0;orthogonalLoop=1;jettySize=auto;html=1;exitX=1;exitY=0.5;exitDx=0;exitDy=0;entryX=1;entryY=0.5;entryDx=0;entryDy=0;" edge="1" parent="1" source="arZdkGKesdoXvIaW-erw-4" target="arZdkGKesdoXvIaW-erw-4">
          <mxGeometry relative="1" as="geometry">
            <mxPoint x="710" y="1820" as="targetPoint" />
          </mxGeometry>
        </mxCell>
        <mxCell id="arZdkGKesdoXvIaW-erw-14" value="" style="edgeStyle=orthogonalEdgeStyle;rounded=0;orthogonalLoop=1;jettySize=auto;html=1;" edge="1" parent="1" source="arZdkGKesdoXvIaW-erw-4" target="arZdkGKesdoXvIaW-erw-13">
          <mxGeometry relative="1" as="geometry" />
        </mxCell>
        <mxCell id="arZdkGKesdoXvIaW-erw-4" value="gcd=i" style="whiteSpace=wrap;html=1;" vertex="1" parent="1">
          <mxGeometry x="540" y="1790" width="120" height="60" as="geometry" />
        </mxCell>
        <mxCell id="arZdkGKesdoXvIaW-erw-8" style="edgeStyle=orthogonalEdgeStyle;rounded=0;orthogonalLoop=1;jettySize=auto;html=1;exitX=1;exitY=0.5;exitDx=0;exitDy=0;" edge="1" parent="1" source="arZdkGKesdoXvIaW-erw-6">
          <mxGeometry relative="1" as="geometry">
            <mxPoint x="620" y="660" as="targetPoint" />
            <mxPoint x="840" y="2000" as="sourcePoint" />
            <Array as="points">
              <mxPoint x="850" y="1970" />
              <mxPoint x="850" y="660" />
            </Array>
          </mxGeometry>
        </mxCell>
        <mxCell id="arZdkGKesdoXvIaW-erw-6" value="gcd" style="shape=parallelogram;perimeter=parallelogramPerimeter;whiteSpace=wrap;html=1;fixedSize=1;" vertex="1" parent="1">
          <mxGeometry x="700" y="1940" width="120" height="60" as="geometry" />
        </mxCell>
        <mxCell id="arZdkGKesdoXvIaW-erw-10" style="edgeStyle=orthogonalEdgeStyle;rounded=0;orthogonalLoop=1;jettySize=auto;html=1;entryX=0.5;entryY=0;entryDx=0;entryDy=0;" edge="1" parent="1" source="zg2HpXga6KxHroLCPBap-1" target="arZdkGKesdoXvIaW-erw-6">
          <mxGeometry relative="1" as="geometry">
            <mxPoint x="760" y="1900" as="targetPoint" />
          </mxGeometry>
        </mxCell>
        <mxCell id="zJff4EWrm5LHXnMvXv4P-2" value="false" style="edgeLabel;html=1;align=center;verticalAlign=middle;resizable=0;points=[];" vertex="1" connectable="0" parent="arZdkGKesdoXvIaW-erw-10">
          <mxGeometry x="-0.8308" y="4" relative="1" as="geometry">
            <mxPoint as="offset" />
          </mxGeometry>
        </mxCell>
        <mxCell id="zJff4EWrm5LHXnMvXv4P-1" style="edgeStyle=orthogonalEdgeStyle;rounded=0;orthogonalLoop=1;jettySize=auto;html=1;exitX=0;exitY=0.5;exitDx=0;exitDy=0;" edge="1" parent="1" source="arZdkGKesdoXvIaW-erw-13">
          <mxGeometry relative="1" as="geometry">
            <mxPoint x="530" y="1540" as="targetPoint" />
            <Array as="points">
              <mxPoint x="450" y="1920" />
              <mxPoint x="450" y="1660" />
              <mxPoint x="531" y="1660" />
            </Array>
          </mxGeometry>
        </mxCell>
        <mxCell id="arZdkGKesdoXvIaW-erw-13" value="i++" style="whiteSpace=wrap;html=1;" vertex="1" parent="1">
          <mxGeometry x="540" y="1890" width="120" height="60" as="geometry" />
        </mxCell>
        <mxCell id="SrSOov9xF5B4vpwAjV_N-24" value="" style="edgeStyle=orthogonalEdgeStyle;rounded=0;orthogonalLoop=1;jettySize=auto;html=1;exitX=1;exitY=0.5;exitDx=0;exitDy=0;" edge="1" parent="1" target="SrSOov9xF5B4vpwAjV_N-27" source="EOKKzA77r5gDIUm1Ne0f-20">
          <mxGeometry relative="1" as="geometry">
            <mxPoint x="360" y="2170" as="sourcePoint" />
          </mxGeometry>
        </mxCell>
        <mxCell id="SrSOov9xF5B4vpwAjV_N-25" value="true" style="edgeLabel;html=1;align=center;verticalAlign=middle;resizable=0;points=[];" vertex="1" connectable="0" parent="SrSOov9xF5B4vpwAjV_N-24">
          <mxGeometry x="-0.34" y="1" relative="1" as="geometry">
            <mxPoint as="offset" />
          </mxGeometry>
        </mxCell>
        <mxCell id="SrSOov9xF5B4vpwAjV_N-26" value="" style="edgeStyle=orthogonalEdgeStyle;rounded=0;orthogonalLoop=1;jettySize=auto;html=1;" edge="1" parent="1" source="SrSOov9xF5B4vpwAjV_N-27" target="SrSOov9xF5B4vpwAjV_N-30">
          <mxGeometry relative="1" as="geometry" />
        </mxCell>
        <mxCell id="SrSOov9xF5B4vpwAjV_N-27" value="i=1" style="whiteSpace=wrap;html=1;" vertex="1" parent="1">
          <mxGeometry x="410" y="2140" width="120" height="60" as="geometry" />
        </mxCell>
        <mxCell id="SrSOov9xF5B4vpwAjV_N-28" value="" style="edgeStyle=orthogonalEdgeStyle;rounded=0;orthogonalLoop=1;jettySize=auto;html=1;" edge="1" parent="1" source="SrSOov9xF5B4vpwAjV_N-30" target="SrSOov9xF5B4vpwAjV_N-32">
          <mxGeometry relative="1" as="geometry" />
        </mxCell>
        <mxCell id="SrSOov9xF5B4vpwAjV_N-29" value="true" style="edgeLabel;html=1;align=center;verticalAlign=middle;resizable=0;points=[];" vertex="1" connectable="0" parent="SrSOov9xF5B4vpwAjV_N-28">
          <mxGeometry x="-0.14" relative="1" as="geometry">
            <mxPoint as="offset" />
          </mxGeometry>
        </mxCell>
        <mxCell id="SrSOov9xF5B4vpwAjV_N-40" value="" style="edgeStyle=orthogonalEdgeStyle;rounded=0;orthogonalLoop=1;jettySize=auto;html=1;" edge="1" parent="1" source="SrSOov9xF5B4vpwAjV_N-30" target="SrSOov9xF5B4vpwAjV_N-39">
          <mxGeometry relative="1" as="geometry" />
        </mxCell>
        <mxCell id="SrSOov9xF5B4vpwAjV_N-41" value="false" style="edgeLabel;html=1;align=center;verticalAlign=middle;resizable=0;points=[];" vertex="1" connectable="0" parent="SrSOov9xF5B4vpwAjV_N-40">
          <mxGeometry x="-0.275" y="-2" relative="1" as="geometry">
            <mxPoint as="offset" />
          </mxGeometry>
        </mxCell>
        <mxCell id="SrSOov9xF5B4vpwAjV_N-30" value="i&amp;lt;=n1||i&amp;lt;=n2" style="rhombus;whiteSpace=wrap;html=1;" vertex="1" parent="1">
          <mxGeometry x="580" y="2130" width="80" height="80" as="geometry" />
        </mxCell>
        <mxCell id="SrSOov9xF5B4vpwAjV_N-31" value="" style="edgeStyle=orthogonalEdgeStyle;rounded=0;orthogonalLoop=1;jettySize=auto;html=1;" edge="1" parent="1" source="SrSOov9xF5B4vpwAjV_N-32" target="SrSOov9xF5B4vpwAjV_N-35">
          <mxGeometry relative="1" as="geometry" />
        </mxCell>
        <mxCell id="SrSOov9xF5B4vpwAjV_N-32" value="n%i==0&amp;amp;&amp;amp;m%i==0" style="rhombus;whiteSpace=wrap;html=1;" vertex="1" parent="1">
          <mxGeometry x="550" y="2290" width="140" height="80" as="geometry" />
        </mxCell>
        <mxCell id="SrSOov9xF5B4vpwAjV_N-33" style="edgeStyle=orthogonalEdgeStyle;rounded=0;orthogonalLoop=1;jettySize=auto;html=1;exitX=1;exitY=0.5;exitDx=0;exitDy=0;entryX=1;entryY=0.5;entryDx=0;entryDy=0;" edge="1" parent="1" source="SrSOov9xF5B4vpwAjV_N-35" target="SrSOov9xF5B4vpwAjV_N-35">
          <mxGeometry relative="1" as="geometry">
            <mxPoint x="730" y="2450" as="targetPoint" />
          </mxGeometry>
        </mxCell>
        <mxCell id="SrSOov9xF5B4vpwAjV_N-34" value="" style="edgeStyle=orthogonalEdgeStyle;rounded=0;orthogonalLoop=1;jettySize=auto;html=1;" edge="1" parent="1" source="SrSOov9xF5B4vpwAjV_N-35" target="SrSOov9xF5B4vpwAjV_N-38">
          <mxGeometry relative="1" as="geometry" />
        </mxCell>
        <mxCell id="SrSOov9xF5B4vpwAjV_N-35" value="gcd=i" style="whiteSpace=wrap;html=1;" vertex="1" parent="1">
          <mxGeometry x="560" y="2420" width="120" height="60" as="geometry" />
        </mxCell>
        <mxCell id="SrSOov9xF5B4vpwAjV_N-37" style="edgeStyle=orthogonalEdgeStyle;rounded=0;orthogonalLoop=1;jettySize=auto;html=1;exitX=0;exitY=0.5;exitDx=0;exitDy=0;" edge="1" parent="1" source="SrSOov9xF5B4vpwAjV_N-38">
          <mxGeometry relative="1" as="geometry">
            <mxPoint x="550" y="2170" as="targetPoint" />
            <Array as="points">
              <mxPoint x="470" y="2550" />
              <mxPoint x="470" y="2290" />
              <mxPoint x="551" y="2290" />
            </Array>
          </mxGeometry>
        </mxCell>
        <mxCell id="SrSOov9xF5B4vpwAjV_N-38" value="i++" style="whiteSpace=wrap;html=1;" vertex="1" parent="1">
          <mxGeometry x="560" y="2520" width="120" height="60" as="geometry" />
        </mxCell>
        <mxCell id="SrSOov9xF5B4vpwAjV_N-49" value="" style="edgeStyle=orthogonalEdgeStyle;rounded=0;orthogonalLoop=1;jettySize=auto;html=1;" edge="1" parent="1" source="SrSOov9xF5B4vpwAjV_N-39" target="SrSOov9xF5B4vpwAjV_N-48">
          <mxGeometry relative="1" as="geometry" />
        </mxCell>
        <mxCell id="SrSOov9xF5B4vpwAjV_N-39" value="lcm=n1*n2/gcd" style="whiteSpace=wrap;html=1;" vertex="1" parent="1">
          <mxGeometry x="740" y="2140" width="120" height="60" as="geometry" />
        </mxCell>
        <mxCell id="SrSOov9xF5B4vpwAjV_N-44" style="edgeStyle=orthogonalEdgeStyle;rounded=0;orthogonalLoop=1;jettySize=auto;html=1;exitX=0.5;exitY=0;exitDx=0;exitDy=0;" edge="1" parent="1" source="SrSOov9xF5B4vpwAjV_N-48">
          <mxGeometry relative="1" as="geometry">
            <mxPoint x="620" y="530" as="targetPoint" />
            <mxPoint x="1050" y="2060" as="sourcePoint" />
            <Array as="points">
              <mxPoint x="1000" y="530" />
              <mxPoint x="850" y="530" />
            </Array>
          </mxGeometry>
        </mxCell>
        <mxCell id="SrSOov9xF5B4vpwAjV_N-46" value="End" style="ellipse;whiteSpace=wrap;html=1;" vertex="1" parent="1">
          <mxGeometry x="440" y="2710" width="120" height="80" as="geometry" />
        </mxCell>
        <mxCell id="SrSOov9xF5B4vpwAjV_N-48" value="lcm" style="shape=parallelogram;perimeter=parallelogramPerimeter;whiteSpace=wrap;html=1;fixedSize=1;" vertex="1" parent="1">
          <mxGeometry x="940" y="2140" width="120" height="60" as="geometry" />
        </mxCell>
      </root>
    </mxGraphModel>
  </diagram>
  <diagram id="6Z4T0IXtTTi2RUqNdgWS" name="BT3">
    <mxGraphModel dx="1290" dy="534" grid="1" gridSize="10" guides="1" tooltips="1" connect="1" arrows="1" fold="1" page="1" pageScale="1" pageWidth="827" pageHeight="1169" math="0" shadow="0">
      <root>
        <mxCell id="0" />
        <mxCell id="1" parent="0" />
        <mxCell id="70BLbkAfb-nggzKJKzIB-3" value="" style="edgeStyle=orthogonalEdgeStyle;rounded=0;orthogonalLoop=1;jettySize=auto;html=1;" parent="1" source="70BLbkAfb-nggzKJKzIB-1" target="70BLbkAfb-nggzKJKzIB-2" edge="1">
          <mxGeometry relative="1" as="geometry" />
        </mxCell>
        <mxCell id="70BLbkAfb-nggzKJKzIB-1" value="Start" style="ellipse;whiteSpace=wrap;html=1;" parent="1" vertex="1">
          <mxGeometry x="340" y="40" width="120" height="80" as="geometry" />
        </mxCell>
        <mxCell id="pFNiQVW9nE_neUfmutXG-2" value="" style="edgeStyle=orthogonalEdgeStyle;rounded=0;orthogonalLoop=1;jettySize=auto;html=1;" parent="1" source="70BLbkAfb-nggzKJKzIB-2" target="pFNiQVW9nE_neUfmutXG-1" edge="1">
          <mxGeometry relative="1" as="geometry" />
        </mxCell>
        <mxCell id="70BLbkAfb-nggzKJKzIB-2" value="n1,n2,n3,sum,average,max,min,choice" style="shape=parallelogram;perimeter=parallelogramPerimeter;whiteSpace=wrap;html=1;fixedSize=1;" parent="1" vertex="1">
          <mxGeometry x="285" y="180" width="230" height="60" as="geometry" />
        </mxCell>
        <mxCell id="tVT8PLI1rbVDdPGcH_ku-2" value="" style="edgeStyle=orthogonalEdgeStyle;rounded=0;orthogonalLoop=1;jettySize=auto;html=1;" parent="1" source="pFNiQVW9nE_neUfmutXG-1" target="tVT8PLI1rbVDdPGcH_ku-1" edge="1">
          <mxGeometry relative="1" as="geometry" />
        </mxCell>
        <mxCell id="pFNiQVW9nE_neUfmutXG-1" value="&lt;table style=&quot;border-collapse: collapse; font-family: &amp;quot;Roboto Flex&amp;quot;; font-size: 16px; scroll-behavior: smooth; overflow: auto; border-spacing: 0px; margin-bottom: 1em; margin-top: 1em; color: rgb(34, 34, 34); text-align: left; background-color: rgb(255, 255, 255);&quot;&gt;&lt;thead style=&quot;box-sizing: border-box; scroll-behavior: smooth;&quot;&gt;&lt;tr style=&quot;box-sizing: border-box; scroll-behavior: smooth;&quot;&gt;&lt;th style=&quot;box-sizing: border-box; text-align: -webkit-match-parent; scroll-behavior: smooth; overflow-wrap: break-word; padding: 8px 14px; border: 1px solid var(--md-theme-border-color);&quot;&gt;CACULATOR&lt;/th&gt;&lt;/tr&gt;&lt;/thead&gt;&lt;tbody style=&quot;box-sizing: border-box; scroll-behavior: smooth;&quot;&gt;&lt;tr style=&quot;box-sizing: border-box; scroll-behavior: smooth;&quot;&gt;&lt;td style=&quot;box-sizing: border-box; scroll-behavior: smooth; overflow-wrap: break-word; padding: 8px 14px; border: 1px solid var(--md-theme-border-color);&quot;&gt;1. Tổng 3 số nguyên&lt;/td&gt;&lt;/tr&gt;&lt;tr style=&quot;box-sizing: border-box; scroll-behavior: smooth; background-color: var(--default-theme-table-stripe-color);&quot;&gt;&lt;td style=&quot;box-sizing: border-box; scroll-behavior: smooth; overflow-wrap: break-word; padding: 8px 14px; border: 1px solid var(--md-theme-border-color);&quot;&gt;2. Trung bình cộng của 3 số nguyên&lt;/td&gt;&lt;/tr&gt;&lt;tr style=&quot;box-sizing: border-box; scroll-behavior: smooth;&quot;&gt;&lt;td style=&quot;box-sizing: border-box; scroll-behavior: smooth; overflow-wrap: break-word; padding: 8px 14px; border: 1px solid var(--md-theme-border-color);&quot;&gt;3. Số lớn nhất, nhỏ nhất trong 3 số&lt;/td&gt;&lt;/tr&gt;&lt;tr style=&quot;box-sizing: border-box; scroll-behavior: smooth; background-color: var(--md-theme-color-hover);&quot;&gt;&lt;td style=&quot;box-sizing: border-box; scroll-behavior: smooth; overflow-wrap: break-word; padding: 8px 14px; border: 1px solid var(--md-theme-border-color);&quot;&gt;4. Thoát&lt;/td&gt;&lt;/tr&gt;&lt;/tbody&gt;&lt;/table&gt;" style="shape=parallelogram;perimeter=parallelogramPerimeter;whiteSpace=wrap;html=1;fixedSize=1;" parent="1" vertex="1">
          <mxGeometry x="230" y="320" width="340" height="210" as="geometry" />
        </mxCell>
        <mxCell id="tVT8PLI1rbVDdPGcH_ku-4" value="" style="edgeStyle=orthogonalEdgeStyle;rounded=0;orthogonalLoop=1;jettySize=auto;html=1;" parent="1" source="tVT8PLI1rbVDdPGcH_ku-1" target="tVT8PLI1rbVDdPGcH_ku-3" edge="1">
          <mxGeometry relative="1" as="geometry" />
        </mxCell>
        <mxCell id="tVT8PLI1rbVDdPGcH_ku-18" value="true" style="edgeLabel;html=1;align=center;verticalAlign=middle;resizable=0;points=[];" parent="tVT8PLI1rbVDdPGcH_ku-4" vertex="1" connectable="0">
          <mxGeometry x="-0.44" y="-3" relative="1" as="geometry">
            <mxPoint as="offset" />
          </mxGeometry>
        </mxCell>
        <mxCell id="tVT8PLI1rbVDdPGcH_ku-9" value="" style="edgeStyle=orthogonalEdgeStyle;rounded=0;orthogonalLoop=1;jettySize=auto;html=1;" parent="1" source="tVT8PLI1rbVDdPGcH_ku-1" target="tVT8PLI1rbVDdPGcH_ku-8" edge="1">
          <mxGeometry relative="1" as="geometry" />
        </mxCell>
        <mxCell id="tVT8PLI1rbVDdPGcH_ku-20" value="false" style="edgeLabel;html=1;align=center;verticalAlign=middle;resizable=0;points=[];" parent="tVT8PLI1rbVDdPGcH_ku-9" vertex="1" connectable="0">
          <mxGeometry x="-0.11" relative="1" as="geometry">
            <mxPoint as="offset" />
          </mxGeometry>
        </mxCell>
        <mxCell id="tVT8PLI1rbVDdPGcH_ku-1" value="choice=1" style="rhombus;whiteSpace=wrap;html=1;" parent="1" vertex="1">
          <mxGeometry x="360" y="660" width="80" height="80" as="geometry" />
        </mxCell>
        <mxCell id="tVT8PLI1rbVDdPGcH_ku-6" value="" style="edgeStyle=orthogonalEdgeStyle;rounded=0;orthogonalLoop=1;jettySize=auto;html=1;" parent="1" source="tVT8PLI1rbVDdPGcH_ku-3" target="tVT8PLI1rbVDdPGcH_ku-5" edge="1">
          <mxGeometry relative="1" as="geometry" />
        </mxCell>
        <mxCell id="tVT8PLI1rbVDdPGcH_ku-3" value="sum=n1+n2+n3" style="whiteSpace=wrap;html=1;" parent="1" vertex="1">
          <mxGeometry x="500" y="670" width="120" height="60" as="geometry" />
        </mxCell>
        <mxCell id="tVT8PLI1rbVDdPGcH_ku-7" style="edgeStyle=orthogonalEdgeStyle;rounded=0;orthogonalLoop=1;jettySize=auto;html=1;" parent="1" source="tVT8PLI1rbVDdPGcH_ku-5" edge="1">
          <mxGeometry relative="1" as="geometry">
            <mxPoint x="401" y="260" as="targetPoint" />
            <Array as="points">
              <mxPoint x="730" y="260" />
              <mxPoint x="401" y="260" />
            </Array>
          </mxGeometry>
        </mxCell>
        <mxCell id="tVT8PLI1rbVDdPGcH_ku-5" value="sum" style="shape=parallelogram;perimeter=parallelogramPerimeter;whiteSpace=wrap;html=1;fixedSize=1;" parent="1" vertex="1">
          <mxGeometry x="670" y="670" width="120" height="60" as="geometry" />
        </mxCell>
        <mxCell id="tVT8PLI1rbVDdPGcH_ku-11" value="" style="edgeStyle=orthogonalEdgeStyle;rounded=0;orthogonalLoop=1;jettySize=auto;html=1;" parent="1" source="tVT8PLI1rbVDdPGcH_ku-8" target="tVT8PLI1rbVDdPGcH_ku-10" edge="1">
          <mxGeometry relative="1" as="geometry" />
        </mxCell>
        <mxCell id="tVT8PLI1rbVDdPGcH_ku-19" value="true" style="edgeLabel;html=1;align=center;verticalAlign=middle;resizable=0;points=[];" parent="tVT8PLI1rbVDdPGcH_ku-11" vertex="1" connectable="0">
          <mxGeometry x="-0.1733" relative="1" as="geometry">
            <mxPoint as="offset" />
          </mxGeometry>
        </mxCell>
        <mxCell id="tVT8PLI1rbVDdPGcH_ku-17" value="" style="edgeStyle=orthogonalEdgeStyle;rounded=0;orthogonalLoop=1;jettySize=auto;html=1;" parent="1" source="tVT8PLI1rbVDdPGcH_ku-8" target="tVT8PLI1rbVDdPGcH_ku-16" edge="1">
          <mxGeometry relative="1" as="geometry" />
        </mxCell>
        <mxCell id="tVT8PLI1rbVDdPGcH_ku-21" value="false" style="edgeLabel;html=1;align=center;verticalAlign=middle;resizable=0;points=[];" parent="tVT8PLI1rbVDdPGcH_ku-17" vertex="1" connectable="0">
          <mxGeometry x="-0.06" y="2" relative="1" as="geometry">
            <mxPoint as="offset" />
          </mxGeometry>
        </mxCell>
        <mxCell id="tVT8PLI1rbVDdPGcH_ku-8" value="choice=2" style="rhombus;whiteSpace=wrap;html=1;" parent="1" vertex="1">
          <mxGeometry x="360" y="820" width="80" height="80" as="geometry" />
        </mxCell>
        <mxCell id="tVT8PLI1rbVDdPGcH_ku-13" value="" style="edgeStyle=orthogonalEdgeStyle;rounded=0;orthogonalLoop=1;jettySize=auto;html=1;" parent="1" source="tVT8PLI1rbVDdPGcH_ku-10" target="tVT8PLI1rbVDdPGcH_ku-12" edge="1">
          <mxGeometry relative="1" as="geometry" />
        </mxCell>
        <mxCell id="tVT8PLI1rbVDdPGcH_ku-10" value="average=(n1+n2+n3)/3" style="whiteSpace=wrap;html=1;" parent="1" vertex="1">
          <mxGeometry x="500" y="830" width="140" height="60" as="geometry" />
        </mxCell>
        <mxCell id="tVT8PLI1rbVDdPGcH_ku-14" style="edgeStyle=orthogonalEdgeStyle;rounded=0;orthogonalLoop=1;jettySize=auto;html=1;exitX=0.5;exitY=0;exitDx=0;exitDy=0;" parent="1" source="tVT8PLI1rbVDdPGcH_ku-12" edge="1">
          <mxGeometry relative="1" as="geometry">
            <mxPoint x="730" y="380" as="targetPoint" />
            <mxPoint x="820" y="740" as="sourcePoint" />
            <Array as="points">
              <mxPoint x="820" y="380" />
            </Array>
          </mxGeometry>
        </mxCell>
        <mxCell id="tVT8PLI1rbVDdPGcH_ku-12" value="average" style="shape=parallelogram;perimeter=parallelogramPerimeter;whiteSpace=wrap;html=1;fixedSize=1;" parent="1" vertex="1">
          <mxGeometry x="760" y="830" width="120" height="60" as="geometry" />
        </mxCell>
        <mxCell id="tVT8PLI1rbVDdPGcH_ku-26" value="" style="edgeStyle=orthogonalEdgeStyle;rounded=0;orthogonalLoop=1;jettySize=auto;html=1;" parent="1" source="tVT8PLI1rbVDdPGcH_ku-16" target="tVT8PLI1rbVDdPGcH_ku-25" edge="1">
          <mxGeometry relative="1" as="geometry" />
        </mxCell>
        <mxCell id="tVT8PLI1rbVDdPGcH_ku-27" value="true" style="edgeLabel;html=1;align=center;verticalAlign=middle;resizable=0;points=[];" parent="tVT8PLI1rbVDdPGcH_ku-26" vertex="1" connectable="0">
          <mxGeometry x="-0.24" relative="1" as="geometry">
            <mxPoint as="offset" />
          </mxGeometry>
        </mxCell>
        <mxCell id="tVT8PLI1rbVDdPGcH_ku-75" value="" style="edgeStyle=orthogonalEdgeStyle;rounded=0;orthogonalLoop=1;jettySize=auto;html=1;" parent="1" source="tVT8PLI1rbVDdPGcH_ku-16" target="tVT8PLI1rbVDdPGcH_ku-74" edge="1">
          <mxGeometry relative="1" as="geometry" />
        </mxCell>
        <mxCell id="tVT8PLI1rbVDdPGcH_ku-16" value="choice=3" style="rhombus;whiteSpace=wrap;html=1;" parent="1" vertex="1">
          <mxGeometry x="360" y="1169" width="80" height="80" as="geometry" />
        </mxCell>
        <mxCell id="tVT8PLI1rbVDdPGcH_ku-29" value="" style="edgeStyle=orthogonalEdgeStyle;rounded=0;orthogonalLoop=1;jettySize=auto;html=1;" parent="1" source="tVT8PLI1rbVDdPGcH_ku-25" target="tVT8PLI1rbVDdPGcH_ku-28" edge="1">
          <mxGeometry relative="1" as="geometry">
            <Array as="points">
              <mxPoint x="660" y="1209" />
              <mxPoint x="660" y="979" />
            </Array>
          </mxGeometry>
        </mxCell>
        <mxCell id="tVT8PLI1rbVDdPGcH_ku-54" style="edgeStyle=orthogonalEdgeStyle;rounded=0;orthogonalLoop=1;jettySize=auto;html=1;exitX=1;exitY=0.5;exitDx=0;exitDy=0;entryX=0;entryY=0.5;entryDx=0;entryDy=0;" parent="1" source="tVT8PLI1rbVDdPGcH_ku-25" target="tVT8PLI1rbVDdPGcH_ku-53" edge="1">
          <mxGeometry relative="1" as="geometry" />
        </mxCell>
        <mxCell id="tVT8PLI1rbVDdPGcH_ku-25" value="max=n1&lt;br&gt;min=n1" style="whiteSpace=wrap;html=1;" parent="1" vertex="1">
          <mxGeometry x="500" y="1179" width="120" height="60" as="geometry" />
        </mxCell>
        <mxCell id="tVT8PLI1rbVDdPGcH_ku-31" value="" style="edgeStyle=orthogonalEdgeStyle;rounded=0;orthogonalLoop=1;jettySize=auto;html=1;" parent="1" source="tVT8PLI1rbVDdPGcH_ku-28" target="tVT8PLI1rbVDdPGcH_ku-30" edge="1">
          <mxGeometry relative="1" as="geometry" />
        </mxCell>
        <mxCell id="tVT8PLI1rbVDdPGcH_ku-32" value="true" style="edgeLabel;html=1;align=center;verticalAlign=middle;resizable=0;points=[];" parent="tVT8PLI1rbVDdPGcH_ku-31" vertex="1" connectable="0">
          <mxGeometry x="-0.16" y="2" relative="1" as="geometry">
            <mxPoint as="offset" />
          </mxGeometry>
        </mxCell>
        <mxCell id="tVT8PLI1rbVDdPGcH_ku-38" value="" style="edgeStyle=orthogonalEdgeStyle;rounded=0;orthogonalLoop=1;jettySize=auto;html=1;" parent="1" source="tVT8PLI1rbVDdPGcH_ku-28" target="tVT8PLI1rbVDdPGcH_ku-37" edge="1">
          <mxGeometry relative="1" as="geometry" />
        </mxCell>
        <mxCell id="tVT8PLI1rbVDdPGcH_ku-42" value="false" style="edgeLabel;html=1;align=center;verticalAlign=middle;resizable=0;points=[];" parent="tVT8PLI1rbVDdPGcH_ku-38" vertex="1" connectable="0">
          <mxGeometry x="-0.085" y="-1" relative="1" as="geometry">
            <mxPoint as="offset" />
          </mxGeometry>
        </mxCell>
        <mxCell id="tVT8PLI1rbVDdPGcH_ku-28" value="max&amp;lt;n2" style="rhombus;whiteSpace=wrap;html=1;" parent="1" vertex="1">
          <mxGeometry x="690" y="939" width="80" height="80" as="geometry" />
        </mxCell>
        <mxCell id="tVT8PLI1rbVDdPGcH_ku-34" value="" style="edgeStyle=orthogonalEdgeStyle;rounded=0;orthogonalLoop=1;jettySize=auto;html=1;" parent="1" source="tVT8PLI1rbVDdPGcH_ku-30" target="tVT8PLI1rbVDdPGcH_ku-33" edge="1">
          <mxGeometry relative="1" as="geometry" />
        </mxCell>
        <mxCell id="tVT8PLI1rbVDdPGcH_ku-30" value="max=n2" style="whiteSpace=wrap;html=1;" parent="1" vertex="1">
          <mxGeometry x="830" y="949" width="120" height="60" as="geometry" />
        </mxCell>
        <mxCell id="tVT8PLI1rbVDdPGcH_ku-36" value="" style="edgeStyle=orthogonalEdgeStyle;rounded=0;orthogonalLoop=1;jettySize=auto;html=1;" parent="1" source="tVT8PLI1rbVDdPGcH_ku-33" target="tVT8PLI1rbVDdPGcH_ku-35" edge="1">
          <mxGeometry relative="1" as="geometry" />
        </mxCell>
        <mxCell id="tVT8PLI1rbVDdPGcH_ku-40" value="true" style="edgeLabel;html=1;align=center;verticalAlign=middle;resizable=0;points=[];" parent="tVT8PLI1rbVDdPGcH_ku-36" vertex="1" connectable="0">
          <mxGeometry x="-0.4933" relative="1" as="geometry">
            <mxPoint as="offset" />
          </mxGeometry>
        </mxCell>
        <mxCell id="tVT8PLI1rbVDdPGcH_ku-50" style="edgeStyle=orthogonalEdgeStyle;rounded=0;orthogonalLoop=1;jettySize=auto;html=1;exitX=0.5;exitY=1;exitDx=0;exitDy=0;" parent="1" source="tVT8PLI1rbVDdPGcH_ku-33" edge="1">
          <mxGeometry relative="1" as="geometry">
            <mxPoint x="1090" y="1140" as="targetPoint" />
          </mxGeometry>
        </mxCell>
        <mxCell id="tVT8PLI1rbVDdPGcH_ku-51" value="false" style="edgeLabel;html=1;align=center;verticalAlign=middle;resizable=0;points=[];" parent="tVT8PLI1rbVDdPGcH_ku-50" vertex="1" connectable="0">
          <mxGeometry x="-0.2132" y="1" relative="1" as="geometry">
            <mxPoint as="offset" />
          </mxGeometry>
        </mxCell>
        <mxCell id="tVT8PLI1rbVDdPGcH_ku-33" value="max&amp;lt;n3" style="rhombus;whiteSpace=wrap;html=1;" parent="1" vertex="1">
          <mxGeometry x="1050" y="939" width="80" height="80" as="geometry" />
        </mxCell>
        <mxCell id="tVT8PLI1rbVDdPGcH_ku-52" style="edgeStyle=orthogonalEdgeStyle;rounded=0;orthogonalLoop=1;jettySize=auto;html=1;exitX=1;exitY=0.5;exitDx=0;exitDy=0;" parent="1" source="tVT8PLI1rbVDdPGcH_ku-35" target="tVT8PLI1rbVDdPGcH_ku-45" edge="1">
          <mxGeometry relative="1" as="geometry" />
        </mxCell>
        <mxCell id="tVT8PLI1rbVDdPGcH_ku-35" value="max=n3" style="whiteSpace=wrap;html=1;" parent="1" vertex="1">
          <mxGeometry x="1190" y="949" width="120" height="60" as="geometry" />
        </mxCell>
        <mxCell id="tVT8PLI1rbVDdPGcH_ku-39" style="edgeStyle=orthogonalEdgeStyle;rounded=0;orthogonalLoop=1;jettySize=auto;html=1;exitX=1;exitY=0.5;exitDx=0;exitDy=0;entryX=0.5;entryY=1;entryDx=0;entryDy=0;" parent="1" source="tVT8PLI1rbVDdPGcH_ku-37" target="tVT8PLI1rbVDdPGcH_ku-35" edge="1">
          <mxGeometry relative="1" as="geometry" />
        </mxCell>
        <mxCell id="tVT8PLI1rbVDdPGcH_ku-41" value="true" style="edgeLabel;html=1;align=center;verticalAlign=middle;resizable=0;points=[];" parent="tVT8PLI1rbVDdPGcH_ku-39" vertex="1" connectable="0">
          <mxGeometry x="-0.2813" relative="1" as="geometry">
            <mxPoint as="offset" />
          </mxGeometry>
        </mxCell>
        <mxCell id="tVT8PLI1rbVDdPGcH_ku-48" value="" style="edgeStyle=orthogonalEdgeStyle;rounded=0;orthogonalLoop=1;jettySize=auto;html=1;entryX=0;entryY=0.75;entryDx=0;entryDy=0;" parent="1" source="tVT8PLI1rbVDdPGcH_ku-37" target="tVT8PLI1rbVDdPGcH_ku-45" edge="1">
          <mxGeometry relative="1" as="geometry">
            <mxPoint x="760" y="1169" as="targetPoint" />
            <Array as="points">
              <mxPoint x="730" y="1143" />
            </Array>
          </mxGeometry>
        </mxCell>
        <mxCell id="tVT8PLI1rbVDdPGcH_ku-49" value="false" style="edgeLabel;html=1;align=center;verticalAlign=middle;resizable=0;points=[];" parent="tVT8PLI1rbVDdPGcH_ku-48" vertex="1" connectable="0">
          <mxGeometry x="-0.4529" y="3" relative="1" as="geometry">
            <mxPoint as="offset" />
          </mxGeometry>
        </mxCell>
        <mxCell id="tVT8PLI1rbVDdPGcH_ku-37" value="max&amp;lt;n3" style="rhombus;whiteSpace=wrap;html=1;" parent="1" vertex="1">
          <mxGeometry x="690" y="1050" width="80" height="80" as="geometry" />
        </mxCell>
        <mxCell id="tVT8PLI1rbVDdPGcH_ku-73" style="edgeStyle=orthogonalEdgeStyle;rounded=0;orthogonalLoop=1;jettySize=auto;html=1;exitX=1;exitY=0.5;exitDx=0;exitDy=0;" parent="1" source="tVT8PLI1rbVDdPGcH_ku-45" edge="1">
          <mxGeometry relative="1" as="geometry">
            <mxPoint x="730" y="306.79998779296875" as="targetPoint" />
            <mxPoint x="1490" y="1129" as="sourcePoint" />
            <Array as="points">
              <mxPoint x="1480" y="1129" />
              <mxPoint x="1480" y="310" />
              <mxPoint x="730" y="310" />
            </Array>
          </mxGeometry>
        </mxCell>
        <mxCell id="tVT8PLI1rbVDdPGcH_ku-45" value="max,min" style="shape=parallelogram;perimeter=parallelogramPerimeter;whiteSpace=wrap;html=1;fixedSize=1;" parent="1" vertex="1">
          <mxGeometry x="1340" y="1099" width="120" height="60" as="geometry" />
        </mxCell>
        <mxCell id="tVT8PLI1rbVDdPGcH_ku-56" value="" style="edgeStyle=orthogonalEdgeStyle;rounded=0;orthogonalLoop=1;jettySize=auto;html=1;" parent="1" source="tVT8PLI1rbVDdPGcH_ku-53" target="tVT8PLI1rbVDdPGcH_ku-55" edge="1">
          <mxGeometry relative="1" as="geometry" />
        </mxCell>
        <mxCell id="tVT8PLI1rbVDdPGcH_ku-63" value="" style="edgeStyle=orthogonalEdgeStyle;rounded=0;orthogonalLoop=1;jettySize=auto;html=1;" parent="1" source="tVT8PLI1rbVDdPGcH_ku-53" target="tVT8PLI1rbVDdPGcH_ku-62" edge="1">
          <mxGeometry relative="1" as="geometry" />
        </mxCell>
        <mxCell id="tVT8PLI1rbVDdPGcH_ku-53" value="min&amp;gt;n2" style="rhombus;whiteSpace=wrap;html=1;" parent="1" vertex="1">
          <mxGeometry x="700" y="1290" width="80" height="80" as="geometry" />
        </mxCell>
        <mxCell id="tVT8PLI1rbVDdPGcH_ku-58" value="" style="edgeStyle=orthogonalEdgeStyle;rounded=0;orthogonalLoop=1;jettySize=auto;html=1;" parent="1" source="tVT8PLI1rbVDdPGcH_ku-55" target="tVT8PLI1rbVDdPGcH_ku-57" edge="1">
          <mxGeometry relative="1" as="geometry" />
        </mxCell>
        <mxCell id="tVT8PLI1rbVDdPGcH_ku-55" value="min=n2" style="whiteSpace=wrap;html=1;" parent="1" vertex="1">
          <mxGeometry x="830" y="1300" width="120" height="60" as="geometry" />
        </mxCell>
        <mxCell id="tVT8PLI1rbVDdPGcH_ku-60" value="" style="edgeStyle=orthogonalEdgeStyle;rounded=0;orthogonalLoop=1;jettySize=auto;html=1;entryX=0;entryY=0.5;entryDx=0;entryDy=0;" parent="1" source="tVT8PLI1rbVDdPGcH_ku-57" target="tVT8PLI1rbVDdPGcH_ku-61" edge="1">
          <mxGeometry relative="1" as="geometry">
            <mxPoint x="1210" y="1330" as="targetPoint" />
          </mxGeometry>
        </mxCell>
        <mxCell id="tVT8PLI1rbVDdPGcH_ku-65" value="true" style="edgeLabel;html=1;align=center;verticalAlign=middle;resizable=0;points=[];" parent="tVT8PLI1rbVDdPGcH_ku-60" vertex="1" connectable="0">
          <mxGeometry x="-0.2933" relative="1" as="geometry">
            <mxPoint as="offset" />
          </mxGeometry>
        </mxCell>
        <mxCell id="tVT8PLI1rbVDdPGcH_ku-71" style="edgeStyle=orthogonalEdgeStyle;rounded=0;orthogonalLoop=1;jettySize=auto;html=1;exitX=0.5;exitY=1;exitDx=0;exitDy=0;" parent="1" source="tVT8PLI1rbVDdPGcH_ku-57" edge="1">
          <mxGeometry relative="1" as="geometry">
            <mxPoint x="1090" y="1550" as="targetPoint" />
          </mxGeometry>
        </mxCell>
        <mxCell id="tVT8PLI1rbVDdPGcH_ku-72" value="false" style="edgeLabel;html=1;align=center;verticalAlign=middle;resizable=0;points=[];" parent="tVT8PLI1rbVDdPGcH_ku-71" vertex="1" connectable="0">
          <mxGeometry x="-0.3152" y="-1" relative="1" as="geometry">
            <mxPoint as="offset" />
          </mxGeometry>
        </mxCell>
        <mxCell id="tVT8PLI1rbVDdPGcH_ku-57" value="min&amp;gt;n3" style="rhombus;whiteSpace=wrap;html=1;" parent="1" vertex="1">
          <mxGeometry x="1050" y="1290" width="80" height="80" as="geometry" />
        </mxCell>
        <mxCell id="tVT8PLI1rbVDdPGcH_ku-64" style="edgeStyle=orthogonalEdgeStyle;rounded=0;orthogonalLoop=1;jettySize=auto;html=1;exitX=1;exitY=0.5;exitDx=0;exitDy=0;entryX=0.5;entryY=1;entryDx=0;entryDy=0;" parent="1" source="tVT8PLI1rbVDdPGcH_ku-61" target="tVT8PLI1rbVDdPGcH_ku-45" edge="1">
          <mxGeometry relative="1" as="geometry" />
        </mxCell>
        <mxCell id="tVT8PLI1rbVDdPGcH_ku-61" value="min=n3" style="rounded=0;whiteSpace=wrap;html=1;" parent="1" vertex="1">
          <mxGeometry x="1190" y="1300" width="120" height="60" as="geometry" />
        </mxCell>
        <mxCell id="tVT8PLI1rbVDdPGcH_ku-67" style="edgeStyle=orthogonalEdgeStyle;rounded=0;orthogonalLoop=1;jettySize=auto;html=1;exitX=0.5;exitY=1;exitDx=0;exitDy=0;" parent="1" source="tVT8PLI1rbVDdPGcH_ku-62" edge="1">
          <mxGeometry relative="1" as="geometry">
            <mxPoint x="1400" y="1160" as="targetPoint" />
          </mxGeometry>
        </mxCell>
        <mxCell id="tVT8PLI1rbVDdPGcH_ku-70" value="false" style="edgeLabel;html=1;align=center;verticalAlign=middle;resizable=0;points=[];" parent="tVT8PLI1rbVDdPGcH_ku-67" vertex="1" connectable="0">
          <mxGeometry x="-0.5344" y="-1" relative="1" as="geometry">
            <mxPoint as="offset" />
          </mxGeometry>
        </mxCell>
        <mxCell id="tVT8PLI1rbVDdPGcH_ku-68" style="edgeStyle=orthogonalEdgeStyle;rounded=0;orthogonalLoop=1;jettySize=auto;html=1;exitX=1;exitY=0.5;exitDx=0;exitDy=0;entryX=0.5;entryY=1;entryDx=0;entryDy=0;" parent="1" source="tVT8PLI1rbVDdPGcH_ku-62" target="tVT8PLI1rbVDdPGcH_ku-61" edge="1">
          <mxGeometry relative="1" as="geometry" />
        </mxCell>
        <mxCell id="tVT8PLI1rbVDdPGcH_ku-69" value="true" style="edgeLabel;html=1;align=center;verticalAlign=middle;resizable=0;points=[];" parent="tVT8PLI1rbVDdPGcH_ku-68" vertex="1" connectable="0">
          <mxGeometry x="-0.5693" y="-1" relative="1" as="geometry">
            <mxPoint as="offset" />
          </mxGeometry>
        </mxCell>
        <mxCell id="tVT8PLI1rbVDdPGcH_ku-62" value="min&amp;gt;n3" style="rhombus;whiteSpace=wrap;html=1;" parent="1" vertex="1">
          <mxGeometry x="700" y="1450" width="80" height="80" as="geometry" />
        </mxCell>
        <mxCell id="tVT8PLI1rbVDdPGcH_ku-77" style="edgeStyle=orthogonalEdgeStyle;rounded=0;orthogonalLoop=1;jettySize=auto;html=1;entryX=0;entryY=0.5;entryDx=0;entryDy=0;" parent="1" source="tVT8PLI1rbVDdPGcH_ku-74" target="tVT8PLI1rbVDdPGcH_ku-76" edge="1">
          <mxGeometry relative="1" as="geometry" />
        </mxCell>
        <mxCell id="tVT8PLI1rbVDdPGcH_ku-78" value="true" style="edgeLabel;html=1;align=center;verticalAlign=middle;resizable=0;points=[];" parent="tVT8PLI1rbVDdPGcH_ku-77" vertex="1" connectable="0">
          <mxGeometry x="-0.2167" y="-1" relative="1" as="geometry">
            <mxPoint as="offset" />
          </mxGeometry>
        </mxCell>
        <mxCell id="tVT8PLI1rbVDdPGcH_ku-80" value="" style="edgeStyle=orthogonalEdgeStyle;rounded=0;orthogonalLoop=1;jettySize=auto;html=1;" parent="1" source="tVT8PLI1rbVDdPGcH_ku-74" target="tVT8PLI1rbVDdPGcH_ku-79" edge="1">
          <mxGeometry relative="1" as="geometry" />
        </mxCell>
        <mxCell id="tVT8PLI1rbVDdPGcH_ku-81" value="false" style="edgeLabel;html=1;align=center;verticalAlign=middle;resizable=0;points=[];" parent="tVT8PLI1rbVDdPGcH_ku-80" vertex="1" connectable="0">
          <mxGeometry x="-0.1515" y="-1" relative="1" as="geometry">
            <mxPoint as="offset" />
          </mxGeometry>
        </mxCell>
        <mxCell id="tVT8PLI1rbVDdPGcH_ku-74" value="choice=4" style="rhombus;whiteSpace=wrap;html=1;" parent="1" vertex="1">
          <mxGeometry x="360" y="1674" width="80" height="80" as="geometry" />
        </mxCell>
        <mxCell id="tVT8PLI1rbVDdPGcH_ku-76" value="End" style="ellipse;whiteSpace=wrap;html=1;" parent="1" vertex="1">
          <mxGeometry x="560" y="1674" width="120" height="80" as="geometry" />
        </mxCell>
        <mxCell id="tVT8PLI1rbVDdPGcH_ku-82" style="edgeStyle=orthogonalEdgeStyle;rounded=0;orthogonalLoop=1;jettySize=auto;html=1;exitX=0;exitY=0.5;exitDx=0;exitDy=0;" parent="1" source="tVT8PLI1rbVDdPGcH_ku-79" edge="1">
          <mxGeometry relative="1" as="geometry">
            <mxPoint x="400" y="280" as="targetPoint" />
            <Array as="points">
              <mxPoint x="180" y="1850" />
              <mxPoint x="180" y="280" />
            </Array>
          </mxGeometry>
        </mxCell>
        <mxCell id="tVT8PLI1rbVDdPGcH_ku-79" value="vui long nhap so tu 1-4" style="shape=parallelogram;perimeter=parallelogramPerimeter;whiteSpace=wrap;html=1;fixedSize=1;" parent="1" vertex="1">
          <mxGeometry x="305" y="1820" width="190" height="60" as="geometry" />
        </mxCell>
      </root>
    </mxGraphModel>
  </diagram>
  <diagram id="cJOipVFLiQzNUqcozbHk" name="BT4">
    <mxGraphModel dx="1290" dy="534" grid="1" gridSize="10" guides="1" tooltips="1" connect="1" arrows="1" fold="1" page="1" pageScale="1" pageWidth="827" pageHeight="1169" math="0" shadow="0">
      <root>
        <mxCell id="0" />
        <mxCell id="1" parent="0" />
        <mxCell id="pmgyqcVl-K8OPKU7a_k5-2" value="" style="edgeStyle=orthogonalEdgeStyle;rounded=0;orthogonalLoop=1;jettySize=auto;html=1;" edge="1" parent="1" source="JHl6XFM7u40wVsdYeneg-1" target="pmgyqcVl-K8OPKU7a_k5-1">
          <mxGeometry relative="1" as="geometry" />
        </mxCell>
        <mxCell id="JHl6XFM7u40wVsdYeneg-1" value="Start" style="ellipse;whiteSpace=wrap;html=1;" vertex="1" parent="1">
          <mxGeometry x="320" y="40" width="120" height="80" as="geometry" />
        </mxCell>
        <mxCell id="pmgyqcVl-K8OPKU7a_k5-4" value="" style="edgeStyle=orthogonalEdgeStyle;rounded=0;orthogonalLoop=1;jettySize=auto;html=1;" edge="1" parent="1" source="pmgyqcVl-K8OPKU7a_k5-1" target="pmgyqcVl-K8OPKU7a_k5-3">
          <mxGeometry relative="1" as="geometry" />
        </mxCell>
        <mxCell id="pmgyqcVl-K8OPKU7a_k5-1" value="n,i,sum,en,e,max,choice" style="shape=parallelogram;perimeter=parallelogramPerimeter;whiteSpace=wrap;html=1;fixedSize=1;" vertex="1" parent="1">
          <mxGeometry x="270" y="210" width="220" height="60" as="geometry" />
        </mxCell>
        <mxCell id="pmgyqcVl-K8OPKU7a_k5-8" value="" style="edgeStyle=orthogonalEdgeStyle;rounded=0;orthogonalLoop=1;jettySize=auto;html=1;" edge="1" parent="1" source="pmgyqcVl-K8OPKU7a_k5-3" target="pmgyqcVl-K8OPKU7a_k5-7">
          <mxGeometry relative="1" as="geometry" />
        </mxCell>
        <mxCell id="pmgyqcVl-K8OPKU7a_k5-3" value="&lt;br&gt;&lt;table style=&quot;box-sizing: border-box; border-collapse: collapse; font-family: &amp;quot;Roboto Flex&amp;quot;; font-size: 16px; scroll-behavior: smooth; overflow: auto; border-spacing: 0px; margin-bottom: 1em; margin-top: 1em; color: rgb(34, 34, 34); font-style: normal; font-variant-ligatures: normal; font-variant-caps: normal; font-weight: 400; letter-spacing: normal; orphans: 2; text-align: left; text-transform: none; widows: 2; word-spacing: 0px; -webkit-text-stroke-width: 0px; background-color: rgb(255, 255, 255); text-decoration-thickness: initial; text-decoration-style: initial; text-decoration-color: initial;&quot;&gt;&lt;thead style=&quot;box-sizing: border-box; font-family: &amp;quot;Roboto Flex&amp;quot;; font-size: 16px; scroll-behavior: smooth;&quot;&gt;&lt;tr style=&quot;box-sizing: border-box; font-family: &amp;quot;Roboto Flex&amp;quot;; font-size: 16px; scroll-behavior: smooth;&quot;&gt;&lt;th style=&quot;box-sizing: border-box; text-align: -webkit-match-parent; font-family: &amp;quot;Roboto Flex&amp;quot;; font-size: 16px; scroll-behavior: smooth; overflow-wrap: break-word; padding: 8px 14px; border: 1px solid var(--md-theme-border-color);&quot;&gt;PRACTICE&lt;/th&gt;&lt;/tr&gt;&lt;/thead&gt;&lt;tbody style=&quot;box-sizing: border-box; font-family: &amp;quot;Roboto Flex&amp;quot;; font-size: 16px; scroll-behavior: smooth;&quot;&gt;&lt;tr style=&quot;box-sizing: border-box; font-family: &amp;quot;Roboto Flex&amp;quot;; font-size: 16px; scroll-behavior: smooth;&quot;&gt;&lt;td style=&quot;box-sizing: border-box; font-family: &amp;quot;Roboto Flex&amp;quot;; font-size: 16px; scroll-behavior: smooth; overflow-wrap: break-word; padding: 8px 14px; border: 1px solid var(--md-theme-border-color);&quot;&gt;1. In day so chia het cho 2 va giam dan (n &amp;gt;= so &amp;gt;= 2)&lt;/td&gt;&lt;/tr&gt;&lt;tr style=&quot;box-sizing: border-box; font-family: &amp;quot;Roboto Flex&amp;quot;; font-size: 16px; scroll-behavior: smooth; background-color: var(--default-theme-table-stripe-color);&quot;&gt;&lt;td style=&quot;box-sizing: border-box; font-family: &amp;quot;Roboto Flex&amp;quot;; font-size: 16px; scroll-behavior: smooth; overflow-wrap: break-word; padding: 8px 14px; border: 1px solid var(--md-theme-border-color);&quot;&gt;2. In cac so nho hon n va tinh tong&lt;/td&gt;&lt;/tr&gt;&lt;tr style=&quot;box-sizing: border-box; font-family: &amp;quot;Roboto Flex&amp;quot;; font-size: 16px; scroll-behavior: smooth;&quot;&gt;&lt;td style=&quot;box-sizing: border-box; font-family: &amp;quot;Roboto Flex&amp;quot;; font-size: 16px; scroll-behavior: smooth; overflow-wrap: break-word; padding: 8px 14px; border: 1px solid var(--md-theme-border-color);&quot;&gt;3. In ra cac uoc so chan cua n&lt;/td&gt;&lt;/tr&gt;&lt;tr style=&quot;box-sizing: border-box; font-family: &amp;quot;Roboto Flex&amp;quot;; font-size: 16px; scroll-behavior: smooth; background-color: var(--default-theme-table-stripe-color);&quot;&gt;&lt;td style=&quot;box-sizing: border-box; font-family: &amp;quot;Roboto Flex&amp;quot;; font-size: 16px; scroll-behavior: smooth; overflow-wrap: break-word; padding: 8px 14px; border: 1px solid var(--md-theme-border-color);&quot;&gt;4. In ra cac ước so le va so luong cac uoc le cua n&lt;/td&gt;&lt;/tr&gt;&lt;tr style=&quot;box-sizing: border-box; font-family: &amp;quot;Roboto Flex&amp;quot;; font-size: 16px; scroll-behavior: smooth;&quot;&gt;&lt;td style=&quot;box-sizing: border-box; font-family: &amp;quot;Roboto Flex&amp;quot;; font-size: 16px; scroll-behavior: smooth; overflow-wrap: break-word; padding: 8px 14px; border: 1px solid var(--md-theme-border-color);&quot;&gt;5. In ra uoc so le lon nhat của n&lt;/td&gt;&lt;/tr&gt;&lt;tr style=&quot;box-sizing: border-box; font-family: &amp;quot;Roboto Flex&amp;quot;; font-size: 16px; scroll-behavior: smooth; background-color: var(--default-theme-table-stripe-color);&quot;&gt;&lt;td style=&quot;box-sizing: border-box; font-family: &amp;quot;Roboto Flex&amp;quot;; font-size: 16px; scroll-behavior: smooth; overflow-wrap: break-word; padding: 8px 14px; border: 1px solid var(--md-theme-border-color);&quot;&gt;6. Thoat&lt;br&gt;&lt;br&gt;Lua chon cua ban:&amp;nbsp;&lt;/td&gt;&lt;/tr&gt;&lt;/tbody&gt;&lt;/table&gt;" style="shape=parallelogram;perimeter=parallelogramPerimeter;whiteSpace=wrap;html=1;fixedSize=1;" vertex="1" parent="1">
          <mxGeometry x="160" y="350" width="440" height="310" as="geometry" />
        </mxCell>
        <mxCell id="pmgyqcVl-K8OPKU7a_k5-11" value="true" style="edgeStyle=orthogonalEdgeStyle;rounded=0;orthogonalLoop=1;jettySize=auto;html=1;exitX=1;exitY=0.5;exitDx=0;exitDy=0;" edge="1" parent="1" source="pmgyqcVl-K8OPKU7a_k5-7" target="pmgyqcVl-K8OPKU7a_k5-10">
          <mxGeometry relative="1" as="geometry">
            <mxPoint x="470" y="820" as="sourcePoint" />
          </mxGeometry>
        </mxCell>
        <mxCell id="pmgyqcVl-K8OPKU7a_k5-33" value="" style="edgeStyle=orthogonalEdgeStyle;rounded=0;orthogonalLoop=1;jettySize=auto;html=1;" edge="1" parent="1" source="pmgyqcVl-K8OPKU7a_k5-7" target="pmgyqcVl-K8OPKU7a_k5-32">
          <mxGeometry relative="1" as="geometry" />
        </mxCell>
        <mxCell id="pmgyqcVl-K8OPKU7a_k5-78" value="false" style="edgeLabel;html=1;align=center;verticalAlign=middle;resizable=0;points=[];" vertex="1" connectable="0" parent="pmgyqcVl-K8OPKU7a_k5-33">
          <mxGeometry x="-0.1521" relative="1" as="geometry">
            <mxPoint as="offset" />
          </mxGeometry>
        </mxCell>
        <mxCell id="pmgyqcVl-K8OPKU7a_k5-7" value="choice=1" style="rhombus;whiteSpace=wrap;html=1;" vertex="1" parent="1">
          <mxGeometry x="340" y="780" width="80" height="80" as="geometry" />
        </mxCell>
        <mxCell id="pmgyqcVl-K8OPKU7a_k5-9" style="edgeStyle=orthogonalEdgeStyle;rounded=0;orthogonalLoop=1;jettySize=auto;html=1;exitX=0.5;exitY=1;exitDx=0;exitDy=0;" edge="1" parent="1" source="pmgyqcVl-K8OPKU7a_k5-3" target="pmgyqcVl-K8OPKU7a_k5-3">
          <mxGeometry relative="1" as="geometry" />
        </mxCell>
        <mxCell id="pmgyqcVl-K8OPKU7a_k5-17" value="" style="edgeStyle=orthogonalEdgeStyle;rounded=0;orthogonalLoop=1;jettySize=auto;html=1;" edge="1" parent="1" source="pmgyqcVl-K8OPKU7a_k5-10" target="pmgyqcVl-K8OPKU7a_k5-16">
          <mxGeometry relative="1" as="geometry" />
        </mxCell>
        <mxCell id="pmgyqcVl-K8OPKU7a_k5-10" value="i=n" style="whiteSpace=wrap;html=1;" vertex="1" parent="1">
          <mxGeometry x="530" y="790" width="120" height="60" as="geometry" />
        </mxCell>
        <mxCell id="pmgyqcVl-K8OPKU7a_k5-24" style="edgeStyle=orthogonalEdgeStyle;rounded=0;orthogonalLoop=1;jettySize=auto;html=1;exitX=1;exitY=0.5;exitDx=0;exitDy=0;entryX=0.5;entryY=1;entryDx=0;entryDy=0;" edge="1" parent="1" source="pmgyqcVl-K8OPKU7a_k5-12" target="pmgyqcVl-K8OPKU7a_k5-21">
          <mxGeometry relative="1" as="geometry">
            <mxPoint x="590" y="870" as="targetPoint" />
            <Array as="points">
              <mxPoint x="720" y="1020" />
              <mxPoint x="720" y="1340" />
              <mxPoint x="590" y="1340" />
            </Array>
          </mxGeometry>
        </mxCell>
        <mxCell id="pmgyqcVl-K8OPKU7a_k5-25" value="false" style="edgeLabel;html=1;align=center;verticalAlign=middle;resizable=0;points=[];" vertex="1" connectable="0" parent="pmgyqcVl-K8OPKU7a_k5-24">
          <mxGeometry x="-0.4191" y="-1" relative="1" as="geometry">
            <mxPoint as="offset" />
          </mxGeometry>
        </mxCell>
        <mxCell id="pmgyqcVl-K8OPKU7a_k5-27" value="" style="edgeStyle=orthogonalEdgeStyle;rounded=0;orthogonalLoop=1;jettySize=auto;html=1;" edge="1" parent="1" source="pmgyqcVl-K8OPKU7a_k5-12" target="pmgyqcVl-K8OPKU7a_k5-26">
          <mxGeometry relative="1" as="geometry" />
        </mxCell>
        <mxCell id="pmgyqcVl-K8OPKU7a_k5-29" value="true" style="edgeLabel;html=1;align=center;verticalAlign=middle;resizable=0;points=[];" vertex="1" connectable="0" parent="pmgyqcVl-K8OPKU7a_k5-27">
          <mxGeometry x="-0.2163" y="2" relative="1" as="geometry">
            <mxPoint as="offset" />
          </mxGeometry>
        </mxCell>
        <mxCell id="pmgyqcVl-K8OPKU7a_k5-12" value="i%2==0" style="rhombus;whiteSpace=wrap;html=1;" vertex="1" parent="1">
          <mxGeometry x="550" y="980" width="80" height="80" as="geometry" />
        </mxCell>
        <mxCell id="pmgyqcVl-K8OPKU7a_k5-22" value="" style="edgeStyle=orthogonalEdgeStyle;rounded=0;orthogonalLoop=1;jettySize=auto;html=1;" edge="1" parent="1" target="pmgyqcVl-K8OPKU7a_k5-21">
          <mxGeometry relative="1" as="geometry">
            <mxPoint x="590" y="1169" as="sourcePoint" />
          </mxGeometry>
        </mxCell>
        <mxCell id="pmgyqcVl-K8OPKU7a_k5-18" value="" style="edgeStyle=orthogonalEdgeStyle;rounded=0;orthogonalLoop=1;jettySize=auto;html=1;" edge="1" parent="1" source="pmgyqcVl-K8OPKU7a_k5-16" target="pmgyqcVl-K8OPKU7a_k5-12">
          <mxGeometry relative="1" as="geometry" />
        </mxCell>
        <mxCell id="pmgyqcVl-K8OPKU7a_k5-19" value="true" style="edgeLabel;html=1;align=center;verticalAlign=middle;resizable=0;points=[];" vertex="1" connectable="0" parent="pmgyqcVl-K8OPKU7a_k5-18">
          <mxGeometry x="0.6533" y="-1" relative="1" as="geometry">
            <mxPoint as="offset" />
          </mxGeometry>
        </mxCell>
        <mxCell id="pmgyqcVl-K8OPKU7a_k5-30" style="edgeStyle=orthogonalEdgeStyle;rounded=0;orthogonalLoop=1;jettySize=auto;html=1;exitX=1;exitY=0.5;exitDx=0;exitDy=0;" edge="1" parent="1" source="pmgyqcVl-K8OPKU7a_k5-16">
          <mxGeometry relative="1" as="geometry">
            <mxPoint x="380" y="300" as="targetPoint" />
            <Array as="points">
              <mxPoint x="750" y="920" />
              <mxPoint x="750" y="300" />
            </Array>
          </mxGeometry>
        </mxCell>
        <mxCell id="pmgyqcVl-K8OPKU7a_k5-31" value="false" style="edgeLabel;html=1;align=center;verticalAlign=middle;resizable=0;points=[];" vertex="1" connectable="0" parent="pmgyqcVl-K8OPKU7a_k5-30">
          <mxGeometry x="-0.5564" y="-1" relative="1" as="geometry">
            <mxPoint as="offset" />
          </mxGeometry>
        </mxCell>
        <mxCell id="pmgyqcVl-K8OPKU7a_k5-16" value="i&amp;gt;=2" style="rhombus;whiteSpace=wrap;html=1;" vertex="1" parent="1">
          <mxGeometry x="550" y="880" width="80" height="80" as="geometry" />
        </mxCell>
        <mxCell id="pmgyqcVl-K8OPKU7a_k5-23" style="edgeStyle=orthogonalEdgeStyle;rounded=0;orthogonalLoop=1;jettySize=auto;html=1;exitX=0;exitY=0.5;exitDx=0;exitDy=0;" edge="1" parent="1" source="pmgyqcVl-K8OPKU7a_k5-21">
          <mxGeometry relative="1" as="geometry">
            <mxPoint x="590" y="860" as="targetPoint" />
            <Array as="points">
              <mxPoint x="470" y="1260" />
              <mxPoint x="470" y="860" />
            </Array>
          </mxGeometry>
        </mxCell>
        <mxCell id="pmgyqcVl-K8OPKU7a_k5-21" value="i--" style="whiteSpace=wrap;html=1;" vertex="1" parent="1">
          <mxGeometry x="530" y="1230" width="120" height="60" as="geometry" />
        </mxCell>
        <mxCell id="pmgyqcVl-K8OPKU7a_k5-28" value="" style="edgeStyle=orthogonalEdgeStyle;rounded=0;orthogonalLoop=1;jettySize=auto;html=1;" edge="1" parent="1" source="pmgyqcVl-K8OPKU7a_k5-26" target="pmgyqcVl-K8OPKU7a_k5-21">
          <mxGeometry relative="1" as="geometry" />
        </mxCell>
        <mxCell id="pmgyqcVl-K8OPKU7a_k5-26" value="i" style="shape=parallelogram;perimeter=parallelogramPerimeter;whiteSpace=wrap;html=1;fixedSize=1;" vertex="1" parent="1">
          <mxGeometry x="530" y="1109" width="120" height="60" as="geometry" />
        </mxCell>
        <mxCell id="pmgyqcVl-K8OPKU7a_k5-35" value="" style="edgeStyle=orthogonalEdgeStyle;rounded=0;orthogonalLoop=1;jettySize=auto;html=1;" edge="1" parent="1" source="pmgyqcVl-K8OPKU7a_k5-32" target="pmgyqcVl-K8OPKU7a_k5-34">
          <mxGeometry relative="1" as="geometry" />
        </mxCell>
        <mxCell id="pmgyqcVl-K8OPKU7a_k5-36" value="true" style="edgeLabel;html=1;align=center;verticalAlign=middle;resizable=0;points=[];" vertex="1" connectable="0" parent="pmgyqcVl-K8OPKU7a_k5-35">
          <mxGeometry x="-0.24" y="-1" relative="1" as="geometry">
            <mxPoint as="offset" />
          </mxGeometry>
        </mxCell>
        <mxCell id="pmgyqcVl-K8OPKU7a_k5-52" value="" style="edgeStyle=orthogonalEdgeStyle;rounded=0;orthogonalLoop=1;jettySize=auto;html=1;" edge="1" parent="1" source="pmgyqcVl-K8OPKU7a_k5-32" target="pmgyqcVl-K8OPKU7a_k5-51">
          <mxGeometry relative="1" as="geometry" />
        </mxCell>
        <mxCell id="pmgyqcVl-K8OPKU7a_k5-79" value="false" style="edgeLabel;html=1;align=center;verticalAlign=middle;resizable=0;points=[];" vertex="1" connectable="0" parent="pmgyqcVl-K8OPKU7a_k5-52">
          <mxGeometry x="-0.0584" relative="1" as="geometry">
            <mxPoint as="offset" />
          </mxGeometry>
        </mxCell>
        <mxCell id="pmgyqcVl-K8OPKU7a_k5-32" value="choice=2" style="rhombus;whiteSpace=wrap;html=1;" vertex="1" parent="1">
          <mxGeometry x="340" y="1420" width="80" height="80" as="geometry" />
        </mxCell>
        <mxCell id="pmgyqcVl-K8OPKU7a_k5-38" value="" style="edgeStyle=orthogonalEdgeStyle;rounded=0;orthogonalLoop=1;jettySize=auto;html=1;" edge="1" parent="1" source="pmgyqcVl-K8OPKU7a_k5-34" target="pmgyqcVl-K8OPKU7a_k5-37">
          <mxGeometry relative="1" as="geometry" />
        </mxCell>
        <mxCell id="pmgyqcVl-K8OPKU7a_k5-34" value="i=n&lt;br&gt;sum=0" style="whiteSpace=wrap;html=1;" vertex="1" parent="1">
          <mxGeometry x="530" y="1430" width="120" height="60" as="geometry" />
        </mxCell>
        <mxCell id="pmgyqcVl-K8OPKU7a_k5-42" value="" style="edgeStyle=orthogonalEdgeStyle;rounded=0;orthogonalLoop=1;jettySize=auto;html=1;" edge="1" parent="1" source="pmgyqcVl-K8OPKU7a_k5-37" target="pmgyqcVl-K8OPKU7a_k5-41">
          <mxGeometry relative="1" as="geometry" />
        </mxCell>
        <mxCell id="pmgyqcVl-K8OPKU7a_k5-45" value="true" style="edgeLabel;html=1;align=center;verticalAlign=middle;resizable=0;points=[];" vertex="1" connectable="0" parent="pmgyqcVl-K8OPKU7a_k5-42">
          <mxGeometry x="-0.0667" relative="1" as="geometry">
            <mxPoint as="offset" />
          </mxGeometry>
        </mxCell>
        <mxCell id="pmgyqcVl-K8OPKU7a_k5-47" value="" style="edgeStyle=orthogonalEdgeStyle;rounded=0;orthogonalLoop=1;jettySize=auto;html=1;" edge="1" parent="1" source="pmgyqcVl-K8OPKU7a_k5-37" target="pmgyqcVl-K8OPKU7a_k5-46">
          <mxGeometry relative="1" as="geometry" />
        </mxCell>
        <mxCell id="pmgyqcVl-K8OPKU7a_k5-49" value="false" style="edgeLabel;html=1;align=center;verticalAlign=middle;resizable=0;points=[];" vertex="1" connectable="0" parent="pmgyqcVl-K8OPKU7a_k5-47">
          <mxGeometry x="-0.1034" y="-2" relative="1" as="geometry">
            <mxPoint as="offset" />
          </mxGeometry>
        </mxCell>
        <mxCell id="pmgyqcVl-K8OPKU7a_k5-37" value="i&amp;gt;=2" style="rhombus;whiteSpace=wrap;html=1;" vertex="1" parent="1">
          <mxGeometry x="550" y="1560" width="80" height="80" as="geometry" />
        </mxCell>
        <mxCell id="pmgyqcVl-K8OPKU7a_k5-44" value="" style="edgeStyle=orthogonalEdgeStyle;rounded=0;orthogonalLoop=1;jettySize=auto;html=1;" edge="1" parent="1" source="pmgyqcVl-K8OPKU7a_k5-41" target="pmgyqcVl-K8OPKU7a_k5-43">
          <mxGeometry relative="1" as="geometry" />
        </mxCell>
        <mxCell id="pmgyqcVl-K8OPKU7a_k5-41" value="i" style="shape=parallelogram;perimeter=parallelogramPerimeter;whiteSpace=wrap;html=1;fixedSize=1;" vertex="1" parent="1">
          <mxGeometry x="530" y="1730" width="120" height="60" as="geometry" />
        </mxCell>
        <mxCell id="pmgyqcVl-K8OPKU7a_k5-48" style="edgeStyle=orthogonalEdgeStyle;rounded=0;orthogonalLoop=1;jettySize=auto;html=1;exitX=0;exitY=0.5;exitDx=0;exitDy=0;" edge="1" parent="1" source="pmgyqcVl-K8OPKU7a_k5-43">
          <mxGeometry relative="1" as="geometry">
            <mxPoint x="590" y="1510" as="targetPoint" />
            <Array as="points">
              <mxPoint x="510" y="1900" />
              <mxPoint x="510" y="1510" />
            </Array>
          </mxGeometry>
        </mxCell>
        <mxCell id="pmgyqcVl-K8OPKU7a_k5-43" value="sum=sum+i&lt;br&gt;i--" style="whiteSpace=wrap;html=1;" vertex="1" parent="1">
          <mxGeometry x="530" y="1870" width="120" height="60" as="geometry" />
        </mxCell>
        <mxCell id="pmgyqcVl-K8OPKU7a_k5-50" style="edgeStyle=orthogonalEdgeStyle;rounded=0;orthogonalLoop=1;jettySize=auto;html=1;exitX=1;exitY=0.5;exitDx=0;exitDy=0;" edge="1" parent="1" source="pmgyqcVl-K8OPKU7a_k5-46">
          <mxGeometry relative="1" as="geometry">
            <mxPoint x="750" y="410" as="targetPoint" />
            <Array as="points">
              <mxPoint x="880" y="1600" />
              <mxPoint x="880" y="410" />
            </Array>
          </mxGeometry>
        </mxCell>
        <mxCell id="pmgyqcVl-K8OPKU7a_k5-46" value="sum" style="shape=parallelogram;perimeter=parallelogramPerimeter;whiteSpace=wrap;html=1;fixedSize=1;" vertex="1" parent="1">
          <mxGeometry x="707" y="1570" width="120" height="60" as="geometry" />
        </mxCell>
        <mxCell id="pmgyqcVl-K8OPKU7a_k5-54" value="" style="edgeStyle=orthogonalEdgeStyle;rounded=0;orthogonalLoop=1;jettySize=auto;html=1;" edge="1" parent="1" source="pmgyqcVl-K8OPKU7a_k5-51" target="pmgyqcVl-K8OPKU7a_k5-53">
          <mxGeometry relative="1" as="geometry" />
        </mxCell>
        <mxCell id="pmgyqcVl-K8OPKU7a_k5-55" value="true" style="edgeLabel;html=1;align=center;verticalAlign=middle;resizable=0;points=[];" vertex="1" connectable="0" parent="pmgyqcVl-K8OPKU7a_k5-54">
          <mxGeometry x="-0.0909" y="-1" relative="1" as="geometry">
            <mxPoint as="offset" />
          </mxGeometry>
        </mxCell>
        <mxCell id="pmgyqcVl-K8OPKU7a_k5-74" value="" style="edgeStyle=orthogonalEdgeStyle;rounded=0;orthogonalLoop=1;jettySize=auto;html=1;" edge="1" parent="1" source="pmgyqcVl-K8OPKU7a_k5-51" target="pmgyqcVl-K8OPKU7a_k5-73">
          <mxGeometry relative="1" as="geometry" />
        </mxCell>
        <mxCell id="pmgyqcVl-K8OPKU7a_k5-80" value="false" style="edgeLabel;html=1;align=center;verticalAlign=middle;resizable=0;points=[];" vertex="1" connectable="0" parent="pmgyqcVl-K8OPKU7a_k5-74">
          <mxGeometry x="-0.2073" y="1" relative="1" as="geometry">
            <mxPoint as="offset" />
          </mxGeometry>
        </mxCell>
        <mxCell id="pmgyqcVl-K8OPKU7a_k5-51" value="choice=3" style="rhombus;whiteSpace=wrap;html=1;" vertex="1" parent="1">
          <mxGeometry x="340" y="2000" width="80" height="80" as="geometry" />
        </mxCell>
        <mxCell id="pmgyqcVl-K8OPKU7a_k5-57" value="" style="edgeStyle=orthogonalEdgeStyle;rounded=0;orthogonalLoop=1;jettySize=auto;html=1;" edge="1" parent="1" source="pmgyqcVl-K8OPKU7a_k5-53" target="pmgyqcVl-K8OPKU7a_k5-56">
          <mxGeometry relative="1" as="geometry" />
        </mxCell>
        <mxCell id="pmgyqcVl-K8OPKU7a_k5-53" value="i=n" style="whiteSpace=wrap;html=1;" vertex="1" parent="1">
          <mxGeometry x="530" y="2010" width="120" height="60" as="geometry" />
        </mxCell>
        <mxCell id="pmgyqcVl-K8OPKU7a_k5-59" value="" style="edgeStyle=orthogonalEdgeStyle;rounded=0;orthogonalLoop=1;jettySize=auto;html=1;" edge="1" parent="1" source="pmgyqcVl-K8OPKU7a_k5-56" target="pmgyqcVl-K8OPKU7a_k5-58">
          <mxGeometry relative="1" as="geometry" />
        </mxCell>
        <mxCell id="pmgyqcVl-K8OPKU7a_k5-67" value="true" style="edgeLabel;html=1;align=center;verticalAlign=middle;resizable=0;points=[];" vertex="1" connectable="0" parent="pmgyqcVl-K8OPKU7a_k5-59">
          <mxGeometry x="-0.07" relative="1" as="geometry">
            <mxPoint as="offset" />
          </mxGeometry>
        </mxCell>
        <mxCell id="pmgyqcVl-K8OPKU7a_k5-71" style="edgeStyle=orthogonalEdgeStyle;rounded=0;orthogonalLoop=1;jettySize=auto;html=1;" edge="1" parent="1" source="pmgyqcVl-K8OPKU7a_k5-56">
          <mxGeometry relative="1" as="geometry">
            <mxPoint x="860" y="1600" as="targetPoint" />
          </mxGeometry>
        </mxCell>
        <mxCell id="pmgyqcVl-K8OPKU7a_k5-72" value="false" style="edgeLabel;html=1;align=center;verticalAlign=middle;resizable=0;points=[];" vertex="1" connectable="0" parent="pmgyqcVl-K8OPKU7a_k5-71">
          <mxGeometry x="-0.6743" y="-2" relative="1" as="geometry">
            <mxPoint as="offset" />
          </mxGeometry>
        </mxCell>
        <mxCell id="pmgyqcVl-K8OPKU7a_k5-56" value="i&amp;gt;=2" style="rhombus;whiteSpace=wrap;html=1;" vertex="1" parent="1">
          <mxGeometry x="550" y="2140" width="80" height="80" as="geometry" />
        </mxCell>
        <mxCell id="pmgyqcVl-K8OPKU7a_k5-63" value="" style="edgeStyle=orthogonalEdgeStyle;rounded=0;orthogonalLoop=1;jettySize=auto;html=1;" edge="1" parent="1" source="pmgyqcVl-K8OPKU7a_k5-58" target="pmgyqcVl-K8OPKU7a_k5-62">
          <mxGeometry relative="1" as="geometry" />
        </mxCell>
        <mxCell id="pmgyqcVl-K8OPKU7a_k5-68" value="true" style="edgeLabel;html=1;align=center;verticalAlign=middle;resizable=0;points=[];" vertex="1" connectable="0" parent="pmgyqcVl-K8OPKU7a_k5-63">
          <mxGeometry x="0.0044" relative="1" as="geometry">
            <mxPoint as="offset" />
          </mxGeometry>
        </mxCell>
        <mxCell id="pmgyqcVl-K8OPKU7a_k5-69" style="edgeStyle=orthogonalEdgeStyle;rounded=0;orthogonalLoop=1;jettySize=auto;html=1;exitX=1;exitY=0.5;exitDx=0;exitDy=0;entryX=0.5;entryY=1;entryDx=0;entryDy=0;" edge="1" parent="1" source="pmgyqcVl-K8OPKU7a_k5-58" target="pmgyqcVl-K8OPKU7a_k5-64">
          <mxGeometry relative="1" as="geometry">
            <mxPoint x="590" y="2110" as="targetPoint" />
            <Array as="points">
              <mxPoint x="720" y="2340" />
              <mxPoint x="720" y="2710" />
              <mxPoint x="590" y="2710" />
            </Array>
          </mxGeometry>
        </mxCell>
        <mxCell id="pmgyqcVl-K8OPKU7a_k5-70" value="false" style="edgeLabel;html=1;align=center;verticalAlign=middle;resizable=0;points=[];" vertex="1" connectable="0" parent="pmgyqcVl-K8OPKU7a_k5-69">
          <mxGeometry x="-0.4073" y="-2" relative="1" as="geometry">
            <mxPoint as="offset" />
          </mxGeometry>
        </mxCell>
        <mxCell id="pmgyqcVl-K8OPKU7a_k5-58" value="i%2==0&amp;amp;&amp;amp;n%i==0" style="rhombus;whiteSpace=wrap;html=1;" vertex="1" parent="1">
          <mxGeometry x="530" y="2300" width="120" height="80" as="geometry" />
        </mxCell>
        <mxCell id="pmgyqcVl-K8OPKU7a_k5-65" value="" style="edgeStyle=orthogonalEdgeStyle;rounded=0;orthogonalLoop=1;jettySize=auto;html=1;" edge="1" parent="1" source="pmgyqcVl-K8OPKU7a_k5-62" target="pmgyqcVl-K8OPKU7a_k5-64">
          <mxGeometry relative="1" as="geometry" />
        </mxCell>
        <mxCell id="pmgyqcVl-K8OPKU7a_k5-62" value="i" style="shape=parallelogram;perimeter=parallelogramPerimeter;whiteSpace=wrap;html=1;fixedSize=1;" vertex="1" parent="1">
          <mxGeometry x="530" y="2470" width="120" height="60" as="geometry" />
        </mxCell>
        <mxCell id="pmgyqcVl-K8OPKU7a_k5-66" style="edgeStyle=orthogonalEdgeStyle;rounded=0;orthogonalLoop=1;jettySize=auto;html=1;exitX=0;exitY=0.5;exitDx=0;exitDy=0;" edge="1" parent="1" source="pmgyqcVl-K8OPKU7a_k5-64">
          <mxGeometry relative="1" as="geometry">
            <mxPoint x="590" y="2100" as="targetPoint" />
            <Array as="points">
              <mxPoint x="510" y="2640" />
              <mxPoint x="510" y="2100" />
            </Array>
          </mxGeometry>
        </mxCell>
        <mxCell id="pmgyqcVl-K8OPKU7a_k5-64" value="i--" style="whiteSpace=wrap;html=1;" vertex="1" parent="1">
          <mxGeometry x="530" y="2610" width="120" height="60" as="geometry" />
        </mxCell>
        <mxCell id="pmgyqcVl-K8OPKU7a_k5-76" value="" style="edgeStyle=orthogonalEdgeStyle;rounded=0;orthogonalLoop=1;jettySize=auto;html=1;" edge="1" parent="1" source="pmgyqcVl-K8OPKU7a_k5-73" target="pmgyqcVl-K8OPKU7a_k5-75">
          <mxGeometry relative="1" as="geometry" />
        </mxCell>
        <mxCell id="pmgyqcVl-K8OPKU7a_k5-77" value="true" style="edgeLabel;html=1;align=center;verticalAlign=middle;resizable=0;points=[];" vertex="1" connectable="0" parent="pmgyqcVl-K8OPKU7a_k5-76">
          <mxGeometry x="-0.2364" y="2" relative="1" as="geometry">
            <mxPoint as="offset" />
          </mxGeometry>
        </mxCell>
        <mxCell id="4Bhe0g_pJyWp4H4EZQnZ-34" value="" style="edgeStyle=orthogonalEdgeStyle;rounded=0;orthogonalLoop=1;jettySize=auto;html=1;" edge="1" parent="1" source="pmgyqcVl-K8OPKU7a_k5-73" target="4Bhe0g_pJyWp4H4EZQnZ-33">
          <mxGeometry relative="1" as="geometry" />
        </mxCell>
        <mxCell id="4Bhe0g_pJyWp4H4EZQnZ-75" value="false" style="edgeLabel;html=1;align=center;verticalAlign=middle;resizable=0;points=[];" vertex="1" connectable="0" parent="4Bhe0g_pJyWp4H4EZQnZ-34">
          <mxGeometry x="-0.3967" y="2" relative="1" as="geometry">
            <mxPoint as="offset" />
          </mxGeometry>
        </mxCell>
        <mxCell id="pmgyqcVl-K8OPKU7a_k5-73" value="choice=4" style="rhombus;whiteSpace=wrap;html=1;" vertex="1" parent="1">
          <mxGeometry x="340" y="2790" width="80" height="80" as="geometry" />
        </mxCell>
        <mxCell id="4Bhe0g_pJyWp4H4EZQnZ-5" value="" style="edgeStyle=orthogonalEdgeStyle;rounded=0;orthogonalLoop=1;jettySize=auto;html=1;" edge="1" parent="1" source="pmgyqcVl-K8OPKU7a_k5-75" target="4Bhe0g_pJyWp4H4EZQnZ-4">
          <mxGeometry relative="1" as="geometry" />
        </mxCell>
        <mxCell id="pmgyqcVl-K8OPKU7a_k5-75" value="i=n&lt;br&gt;en=0" style="whiteSpace=wrap;html=1;" vertex="1" parent="1">
          <mxGeometry x="530" y="2800" width="120" height="60" as="geometry" />
        </mxCell>
        <mxCell id="4Bhe0g_pJyWp4H4EZQnZ-7" value="" style="edgeStyle=orthogonalEdgeStyle;rounded=0;orthogonalLoop=1;jettySize=auto;html=1;" edge="1" parent="1" source="4Bhe0g_pJyWp4H4EZQnZ-4" target="4Bhe0g_pJyWp4H4EZQnZ-6">
          <mxGeometry relative="1" as="geometry" />
        </mxCell>
        <mxCell id="4Bhe0g_pJyWp4H4EZQnZ-19" value="true" style="edgeLabel;html=1;align=center;verticalAlign=middle;resizable=0;points=[];" vertex="1" connectable="0" parent="4Bhe0g_pJyWp4H4EZQnZ-7">
          <mxGeometry x="0.03" y="-1" relative="1" as="geometry">
            <mxPoint as="offset" />
          </mxGeometry>
        </mxCell>
        <mxCell id="4Bhe0g_pJyWp4H4EZQnZ-26" value="" style="edgeStyle=orthogonalEdgeStyle;rounded=0;orthogonalLoop=1;jettySize=auto;html=1;" edge="1" parent="1" source="4Bhe0g_pJyWp4H4EZQnZ-4" target="4Bhe0g_pJyWp4H4EZQnZ-25">
          <mxGeometry relative="1" as="geometry" />
        </mxCell>
        <mxCell id="4Bhe0g_pJyWp4H4EZQnZ-27" value="false" style="edgeLabel;html=1;align=center;verticalAlign=middle;resizable=0;points=[];" vertex="1" connectable="0" parent="4Bhe0g_pJyWp4H4EZQnZ-26">
          <mxGeometry x="-0.3" y="-1" relative="1" as="geometry">
            <mxPoint as="offset" />
          </mxGeometry>
        </mxCell>
        <mxCell id="4Bhe0g_pJyWp4H4EZQnZ-4" value="i&amp;gt;=2" style="rhombus;whiteSpace=wrap;html=1;" vertex="1" parent="1">
          <mxGeometry x="550" y="2930" width="80" height="80" as="geometry" />
        </mxCell>
        <mxCell id="4Bhe0g_pJyWp4H4EZQnZ-9" value="" style="edgeStyle=orthogonalEdgeStyle;rounded=0;orthogonalLoop=1;jettySize=auto;html=1;" edge="1" parent="1" source="4Bhe0g_pJyWp4H4EZQnZ-6" target="4Bhe0g_pJyWp4H4EZQnZ-8">
          <mxGeometry relative="1" as="geometry" />
        </mxCell>
        <mxCell id="4Bhe0g_pJyWp4H4EZQnZ-20" value="true" style="edgeLabel;html=1;align=center;verticalAlign=middle;resizable=0;points=[];" vertex="1" connectable="0" parent="4Bhe0g_pJyWp4H4EZQnZ-9">
          <mxGeometry x="-0.12" y="-1" relative="1" as="geometry">
            <mxPoint as="offset" />
          </mxGeometry>
        </mxCell>
        <mxCell id="4Bhe0g_pJyWp4H4EZQnZ-30" style="edgeStyle=orthogonalEdgeStyle;rounded=0;orthogonalLoop=1;jettySize=auto;html=1;entryX=0.5;entryY=1;entryDx=0;entryDy=0;exitX=1;exitY=0.5;exitDx=0;exitDy=0;" edge="1" parent="1" source="4Bhe0g_pJyWp4H4EZQnZ-6" target="4Bhe0g_pJyWp4H4EZQnZ-16">
          <mxGeometry relative="1" as="geometry">
            <Array as="points">
              <mxPoint x="870" y="3130" />
              <mxPoint x="870" y="3610" />
              <mxPoint x="590" y="3610" />
            </Array>
          </mxGeometry>
        </mxCell>
        <mxCell id="4Bhe0g_pJyWp4H4EZQnZ-31" value="false" style="edgeLabel;html=1;align=center;verticalAlign=middle;resizable=0;points=[];" vertex="1" connectable="0" parent="4Bhe0g_pJyWp4H4EZQnZ-30">
          <mxGeometry x="-0.83" y="-2" relative="1" as="geometry">
            <mxPoint as="offset" />
          </mxGeometry>
        </mxCell>
        <mxCell id="4Bhe0g_pJyWp4H4EZQnZ-6" value="i%2!=0&amp;amp;&amp;amp;n%i==0" style="rhombus;whiteSpace=wrap;html=1;" vertex="1" parent="1">
          <mxGeometry x="530" y="3090" width="120" height="80" as="geometry" />
        </mxCell>
        <mxCell id="4Bhe0g_pJyWp4H4EZQnZ-36" value="" style="edgeStyle=orthogonalEdgeStyle;rounded=0;orthogonalLoop=1;jettySize=auto;html=1;" edge="1" parent="1" source="4Bhe0g_pJyWp4H4EZQnZ-8" target="4Bhe0g_pJyWp4H4EZQnZ-35">
          <mxGeometry relative="1" as="geometry" />
        </mxCell>
        <mxCell id="4Bhe0g_pJyWp4H4EZQnZ-8" value="i" style="shape=parallelogram;perimeter=parallelogramPerimeter;whiteSpace=wrap;html=1;fixedSize=1;" vertex="1" parent="1">
          <mxGeometry x="530" y="3250" width="120" height="60" as="geometry" />
        </mxCell>
        <mxCell id="4Bhe0g_pJyWp4H4EZQnZ-18" style="edgeStyle=orthogonalEdgeStyle;rounded=0;orthogonalLoop=1;jettySize=auto;html=1;exitX=0;exitY=0.5;exitDx=0;exitDy=0;" edge="1" parent="1" source="4Bhe0g_pJyWp4H4EZQnZ-16">
          <mxGeometry relative="1" as="geometry">
            <mxPoint x="590" y="2875.199951171875" as="targetPoint" />
            <Array as="points">
              <mxPoint x="510" y="3560" />
              <mxPoint x="510" y="2875" />
            </Array>
          </mxGeometry>
        </mxCell>
        <mxCell id="4Bhe0g_pJyWp4H4EZQnZ-16" value="i--" style="whiteSpace=wrap;html=1;" vertex="1" parent="1">
          <mxGeometry x="530" y="3530" width="120" height="60" as="geometry" />
        </mxCell>
        <mxCell id="4Bhe0g_pJyWp4H4EZQnZ-32" style="edgeStyle=orthogonalEdgeStyle;rounded=0;orthogonalLoop=1;jettySize=auto;html=1;exitX=0.5;exitY=0;exitDx=0;exitDy=0;" edge="1" parent="1" source="4Bhe0g_pJyWp4H4EZQnZ-25">
          <mxGeometry relative="1" as="geometry">
            <mxPoint x="820" y="2176.800048828125" as="targetPoint" />
          </mxGeometry>
        </mxCell>
        <mxCell id="4Bhe0g_pJyWp4H4EZQnZ-25" value="en" style="shape=parallelogram;perimeter=parallelogramPerimeter;whiteSpace=wrap;html=1;fixedSize=1;" vertex="1" parent="1">
          <mxGeometry x="790" y="2940" width="120" height="60" as="geometry" />
        </mxCell>
        <mxCell id="4Bhe0g_pJyWp4H4EZQnZ-39" value="" style="edgeStyle=orthogonalEdgeStyle;rounded=0;orthogonalLoop=1;jettySize=auto;html=1;" edge="1" parent="1" source="4Bhe0g_pJyWp4H4EZQnZ-33" target="4Bhe0g_pJyWp4H4EZQnZ-38">
          <mxGeometry relative="1" as="geometry" />
        </mxCell>
        <mxCell id="4Bhe0g_pJyWp4H4EZQnZ-40" value="true" style="edgeLabel;html=1;align=center;verticalAlign=middle;resizable=0;points=[];" vertex="1" connectable="0" parent="4Bhe0g_pJyWp4H4EZQnZ-39">
          <mxGeometry x="-0.1091" y="-1" relative="1" as="geometry">
            <mxPoint as="offset" />
          </mxGeometry>
        </mxCell>
        <mxCell id="4Bhe0g_pJyWp4H4EZQnZ-66" value="" style="edgeStyle=orthogonalEdgeStyle;rounded=0;orthogonalLoop=1;jettySize=auto;html=1;" edge="1" parent="1" source="4Bhe0g_pJyWp4H4EZQnZ-33" target="4Bhe0g_pJyWp4H4EZQnZ-65">
          <mxGeometry relative="1" as="geometry" />
        </mxCell>
        <mxCell id="4Bhe0g_pJyWp4H4EZQnZ-74" value="false" style="edgeLabel;html=1;align=center;verticalAlign=middle;resizable=0;points=[];" vertex="1" connectable="0" parent="4Bhe0g_pJyWp4H4EZQnZ-66">
          <mxGeometry x="-0.08" y="-2" relative="1" as="geometry">
            <mxPoint as="offset" />
          </mxGeometry>
        </mxCell>
        <mxCell id="4Bhe0g_pJyWp4H4EZQnZ-33" value="choice=5" style="rhombus;whiteSpace=wrap;html=1;" vertex="1" parent="1">
          <mxGeometry x="340" y="3720" width="80" height="80" as="geometry" />
        </mxCell>
        <mxCell id="4Bhe0g_pJyWp4H4EZQnZ-37" value="" style="edgeStyle=orthogonalEdgeStyle;rounded=0;orthogonalLoop=1;jettySize=auto;html=1;" edge="1" parent="1" source="4Bhe0g_pJyWp4H4EZQnZ-35" target="4Bhe0g_pJyWp4H4EZQnZ-16">
          <mxGeometry relative="1" as="geometry" />
        </mxCell>
        <mxCell id="4Bhe0g_pJyWp4H4EZQnZ-35" value="en++" style="whiteSpace=wrap;html=1;" vertex="1" parent="1">
          <mxGeometry x="530" y="3360" width="120" height="60" as="geometry" />
        </mxCell>
        <mxCell id="4Bhe0g_pJyWp4H4EZQnZ-42" value="" style="edgeStyle=orthogonalEdgeStyle;rounded=0;orthogonalLoop=1;jettySize=auto;html=1;" edge="1" parent="1" source="4Bhe0g_pJyWp4H4EZQnZ-38" target="4Bhe0g_pJyWp4H4EZQnZ-41">
          <mxGeometry relative="1" as="geometry" />
        </mxCell>
        <mxCell id="4Bhe0g_pJyWp4H4EZQnZ-38" value="i=n&lt;br&gt;max=0" style="whiteSpace=wrap;html=1;" vertex="1" parent="1">
          <mxGeometry x="530" y="3730" width="120" height="60" as="geometry" />
        </mxCell>
        <mxCell id="4Bhe0g_pJyWp4H4EZQnZ-44" value="" style="edgeStyle=orthogonalEdgeStyle;rounded=0;orthogonalLoop=1;jettySize=auto;html=1;" edge="1" parent="1" source="4Bhe0g_pJyWp4H4EZQnZ-41" target="4Bhe0g_pJyWp4H4EZQnZ-43">
          <mxGeometry relative="1" as="geometry" />
        </mxCell>
        <mxCell id="4Bhe0g_pJyWp4H4EZQnZ-54" value="true" style="edgeLabel;html=1;align=center;verticalAlign=middle;resizable=0;points=[];" vertex="1" connectable="0" parent="4Bhe0g_pJyWp4H4EZQnZ-44">
          <mxGeometry x="-0.165" relative="1" as="geometry">
            <mxPoint as="offset" />
          </mxGeometry>
        </mxCell>
        <mxCell id="4Bhe0g_pJyWp4H4EZQnZ-62" value="" style="edgeStyle=orthogonalEdgeStyle;rounded=0;orthogonalLoop=1;jettySize=auto;html=1;" edge="1" parent="1" source="4Bhe0g_pJyWp4H4EZQnZ-41" target="4Bhe0g_pJyWp4H4EZQnZ-61">
          <mxGeometry relative="1" as="geometry" />
        </mxCell>
        <mxCell id="4Bhe0g_pJyWp4H4EZQnZ-63" value="false" style="edgeLabel;html=1;align=center;verticalAlign=middle;resizable=0;points=[];" vertex="1" connectable="0" parent="4Bhe0g_pJyWp4H4EZQnZ-62">
          <mxGeometry x="-0.2429" y="-1" relative="1" as="geometry">
            <mxPoint as="offset" />
          </mxGeometry>
        </mxCell>
        <mxCell id="4Bhe0g_pJyWp4H4EZQnZ-41" value="i&amp;gt;=2" style="rhombus;whiteSpace=wrap;html=1;" vertex="1" parent="1">
          <mxGeometry x="550" y="3860" width="80" height="80" as="geometry" />
        </mxCell>
        <mxCell id="4Bhe0g_pJyWp4H4EZQnZ-46" value="" style="edgeStyle=orthogonalEdgeStyle;rounded=0;orthogonalLoop=1;jettySize=auto;html=1;" edge="1" parent="1" source="4Bhe0g_pJyWp4H4EZQnZ-43" target="4Bhe0g_pJyWp4H4EZQnZ-45">
          <mxGeometry relative="1" as="geometry" />
        </mxCell>
        <mxCell id="4Bhe0g_pJyWp4H4EZQnZ-55" value="true" style="edgeLabel;html=1;align=center;verticalAlign=middle;resizable=0;points=[];" vertex="1" connectable="0" parent="4Bhe0g_pJyWp4H4EZQnZ-46">
          <mxGeometry x="-0.0743" y="-2" relative="1" as="geometry">
            <mxPoint as="offset" />
          </mxGeometry>
        </mxCell>
        <mxCell id="4Bhe0g_pJyWp4H4EZQnZ-57" style="edgeStyle=orthogonalEdgeStyle;rounded=0;orthogonalLoop=1;jettySize=auto;html=1;entryX=1;entryY=0.5;entryDx=0;entryDy=0;exitX=1;exitY=0.5;exitDx=0;exitDy=0;" edge="1" parent="1" source="4Bhe0g_pJyWp4H4EZQnZ-43" target="4Bhe0g_pJyWp4H4EZQnZ-51">
          <mxGeometry relative="1" as="geometry">
            <Array as="points">
              <mxPoint x="720" y="4060" />
              <mxPoint x="720" y="4640" />
            </Array>
          </mxGeometry>
        </mxCell>
        <mxCell id="4Bhe0g_pJyWp4H4EZQnZ-58" value="false" style="edgeLabel;html=1;align=center;verticalAlign=middle;resizable=0;points=[];" vertex="1" connectable="0" parent="4Bhe0g_pJyWp4H4EZQnZ-57">
          <mxGeometry x="-0.1735" y="1" relative="1" as="geometry">
            <mxPoint as="offset" />
          </mxGeometry>
        </mxCell>
        <mxCell id="4Bhe0g_pJyWp4H4EZQnZ-43" value="i%2!=0&amp;amp;&amp;amp;n%i==0" style="rhombus;whiteSpace=wrap;html=1;" vertex="1" parent="1">
          <mxGeometry x="520" y="4020" width="140" height="80" as="geometry" />
        </mxCell>
        <mxCell id="4Bhe0g_pJyWp4H4EZQnZ-48" value="" style="edgeStyle=orthogonalEdgeStyle;rounded=0;orthogonalLoop=1;jettySize=auto;html=1;" edge="1" parent="1" source="4Bhe0g_pJyWp4H4EZQnZ-45" target="4Bhe0g_pJyWp4H4EZQnZ-47">
          <mxGeometry relative="1" as="geometry" />
        </mxCell>
        <mxCell id="4Bhe0g_pJyWp4H4EZQnZ-45" value="i" style="shape=parallelogram;perimeter=parallelogramPerimeter;whiteSpace=wrap;html=1;fixedSize=1;" vertex="1" parent="1">
          <mxGeometry x="530" y="4170" width="120" height="60" as="geometry" />
        </mxCell>
        <mxCell id="4Bhe0g_pJyWp4H4EZQnZ-50" value="" style="edgeStyle=orthogonalEdgeStyle;rounded=0;orthogonalLoop=1;jettySize=auto;html=1;" edge="1" parent="1" source="4Bhe0g_pJyWp4H4EZQnZ-47" target="4Bhe0g_pJyWp4H4EZQnZ-49">
          <mxGeometry relative="1" as="geometry" />
        </mxCell>
        <mxCell id="4Bhe0g_pJyWp4H4EZQnZ-56" value="true" style="edgeLabel;html=1;align=center;verticalAlign=middle;resizable=0;points=[];" vertex="1" connectable="0" parent="4Bhe0g_pJyWp4H4EZQnZ-50">
          <mxGeometry x="-0.0578" relative="1" as="geometry">
            <mxPoint as="offset" />
          </mxGeometry>
        </mxCell>
        <mxCell id="4Bhe0g_pJyWp4H4EZQnZ-59" style="edgeStyle=orthogonalEdgeStyle;rounded=0;orthogonalLoop=1;jettySize=auto;html=1;" edge="1" parent="1" source="4Bhe0g_pJyWp4H4EZQnZ-47">
          <mxGeometry relative="1" as="geometry">
            <mxPoint x="720" y="4340" as="targetPoint" />
          </mxGeometry>
        </mxCell>
        <mxCell id="4Bhe0g_pJyWp4H4EZQnZ-60" value="false" style="edgeLabel;html=1;align=center;verticalAlign=middle;resizable=0;points=[];" vertex="1" connectable="0" parent="4Bhe0g_pJyWp4H4EZQnZ-59">
          <mxGeometry x="-0.1823" relative="1" as="geometry">
            <mxPoint as="offset" />
          </mxGeometry>
        </mxCell>
        <mxCell id="4Bhe0g_pJyWp4H4EZQnZ-47" value="max&amp;lt;i" style="rhombus;whiteSpace=wrap;html=1;" vertex="1" parent="1">
          <mxGeometry x="550" y="4300" width="80" height="80" as="geometry" />
        </mxCell>
        <mxCell id="4Bhe0g_pJyWp4H4EZQnZ-52" value="" style="edgeStyle=orthogonalEdgeStyle;rounded=0;orthogonalLoop=1;jettySize=auto;html=1;" edge="1" parent="1" source="4Bhe0g_pJyWp4H4EZQnZ-49" target="4Bhe0g_pJyWp4H4EZQnZ-51">
          <mxGeometry relative="1" as="geometry" />
        </mxCell>
        <mxCell id="4Bhe0g_pJyWp4H4EZQnZ-49" value="i=max" style="whiteSpace=wrap;html=1;" vertex="1" parent="1">
          <mxGeometry x="530" y="4470" width="120" height="60" as="geometry" />
        </mxCell>
        <mxCell id="4Bhe0g_pJyWp4H4EZQnZ-53" style="edgeStyle=orthogonalEdgeStyle;rounded=0;orthogonalLoop=1;jettySize=auto;html=1;exitX=0;exitY=0.5;exitDx=0;exitDy=0;" edge="1" parent="1" source="4Bhe0g_pJyWp4H4EZQnZ-51">
          <mxGeometry relative="1" as="geometry">
            <mxPoint x="590" y="3818.39990234375" as="targetPoint" />
            <Array as="points">
              <mxPoint x="510" y="4640" />
              <mxPoint x="510" y="3818" />
            </Array>
          </mxGeometry>
        </mxCell>
        <mxCell id="4Bhe0g_pJyWp4H4EZQnZ-51" value="i--" style="whiteSpace=wrap;html=1;" vertex="1" parent="1">
          <mxGeometry x="530" y="4610" width="120" height="60" as="geometry" />
        </mxCell>
        <mxCell id="4Bhe0g_pJyWp4H4EZQnZ-64" style="edgeStyle=orthogonalEdgeStyle;rounded=0;orthogonalLoop=1;jettySize=auto;html=1;exitX=0.5;exitY=0;exitDx=0;exitDy=0;" edge="1" parent="1" source="4Bhe0g_pJyWp4H4EZQnZ-61">
          <mxGeometry relative="1" as="geometry">
            <mxPoint x="820" y="3610" as="targetPoint" />
          </mxGeometry>
        </mxCell>
        <mxCell id="4Bhe0g_pJyWp4H4EZQnZ-61" value="max" style="shape=parallelogram;perimeter=parallelogramPerimeter;whiteSpace=wrap;html=1;fixedSize=1;" vertex="1" parent="1">
          <mxGeometry x="760" y="3870" width="120" height="60" as="geometry" />
        </mxCell>
        <mxCell id="4Bhe0g_pJyWp4H4EZQnZ-68" style="edgeStyle=orthogonalEdgeStyle;rounded=0;orthogonalLoop=1;jettySize=auto;html=1;exitX=1;exitY=0.5;exitDx=0;exitDy=0;entryX=0;entryY=0.5;entryDx=0;entryDy=0;" edge="1" parent="1" source="4Bhe0g_pJyWp4H4EZQnZ-65" target="4Bhe0g_pJyWp4H4EZQnZ-67">
          <mxGeometry relative="1" as="geometry" />
        </mxCell>
        <mxCell id="4Bhe0g_pJyWp4H4EZQnZ-69" value="true" style="edgeLabel;html=1;align=center;verticalAlign=middle;resizable=0;points=[];" vertex="1" connectable="0" parent="4Bhe0g_pJyWp4H4EZQnZ-68">
          <mxGeometry x="-0.2333" y="-1" relative="1" as="geometry">
            <mxPoint as="offset" />
          </mxGeometry>
        </mxCell>
        <mxCell id="4Bhe0g_pJyWp4H4EZQnZ-71" value="" style="edgeStyle=orthogonalEdgeStyle;rounded=0;orthogonalLoop=1;jettySize=auto;html=1;" edge="1" parent="1" source="4Bhe0g_pJyWp4H4EZQnZ-65" target="4Bhe0g_pJyWp4H4EZQnZ-70">
          <mxGeometry relative="1" as="geometry" />
        </mxCell>
        <mxCell id="4Bhe0g_pJyWp4H4EZQnZ-72" value="false" style="edgeLabel;html=1;align=center;verticalAlign=middle;resizable=0;points=[];" vertex="1" connectable="0" parent="4Bhe0g_pJyWp4H4EZQnZ-71">
          <mxGeometry x="-0.1289" y="-2" relative="1" as="geometry">
            <mxPoint as="offset" />
          </mxGeometry>
        </mxCell>
        <mxCell id="4Bhe0g_pJyWp4H4EZQnZ-65" value="choice=6" style="rhombus;whiteSpace=wrap;html=1;" vertex="1" parent="1">
          <mxGeometry x="340" y="4790" width="80" height="80" as="geometry" />
        </mxCell>
        <mxCell id="4Bhe0g_pJyWp4H4EZQnZ-67" value="End" style="ellipse;whiteSpace=wrap;html=1;" vertex="1" parent="1">
          <mxGeometry x="540" y="4790" width="120" height="80" as="geometry" />
        </mxCell>
        <mxCell id="4Bhe0g_pJyWp4H4EZQnZ-73" style="edgeStyle=orthogonalEdgeStyle;rounded=0;orthogonalLoop=1;jettySize=auto;html=1;exitX=0;exitY=0.5;exitDx=0;exitDy=0;" edge="1" parent="1" source="4Bhe0g_pJyWp4H4EZQnZ-70">
          <mxGeometry relative="1" as="geometry">
            <mxPoint x="380" y="320" as="targetPoint" />
            <Array as="points">
              <mxPoint x="80" y="4990" />
              <mxPoint x="80" y="320" />
            </Array>
          </mxGeometry>
        </mxCell>
        <mxCell id="4Bhe0g_pJyWp4H4EZQnZ-70" value="vui long chon so tu 1-6" style="shape=parallelogram;perimeter=parallelogramPerimeter;whiteSpace=wrap;html=1;fixedSize=1;" vertex="1" parent="1">
          <mxGeometry x="270" y="4960" width="220" height="60" as="geometry" />
        </mxCell>
      </root>
    </mxGraphModel>
  </diagram>
</mxfile>
